SplineFontDB: 3.2
FontName: Altinn-DINExp-Bold
FullName: Altinn-DIN Exp Bold
FamilyName: Altinn-DIN Exp
Weight: Bold
Copyright: Copyright (c) 2019 Altinn. All rights reserved.
Version: 2.00
ItalicAngle: 0
UnderlinePosition: -153
UnderlineWidth: 51
Ascent: 782
Descent: 242
InvalidEm: 0
sfntRevision: 0x00010000
LayerCount: 2
Layer: 0 1 "Back" 1
Layer: 1 1 "Fore" 0
XUID: [1021 976 -1802971697 21287]
StyleMap: 0x0020
FSType: 0
OS2Version: 4
OS2_WeightWidthSlopeOnly: 1
OS2_UseTypoMetrics: 1
CreationTime: 1462909513
ModificationTime: 1574598209
PfmFamily: 33
TTFWeight: 700
TTFWidth: 7
LineGap: 0
VLineGap: 0
Panose: 2 11 8 4 2 2 2 3 2 4
OS2TypoAscent: 782
OS2TypoAOffset: 0
OS2TypoDescent: -242
OS2TypoDOffset: 0
OS2TypoLinegap: 0
OS2WinAscent: 924
OS2WinAOffset: 0
OS2WinDescent: 188
OS2WinDOffset: 0
HheadAscent: 924
HheadAOffset: 0
HheadDescent: -188
HheadDOffset: 0
OS2SubXSize: 666
OS2SubYSize: 614
OS2SubXOff: 0
OS2SubYOff: 77
OS2SupXSize: 666
OS2SupYSize: 614
OS2SupXOff: 0
OS2SupYOff: 358
OS2StrikeYSize: 51
OS2StrikeYPos: 319
OS2CapHeight: 707
OS2XHeight: 532
OS2Vendor: 'MONO'
OS2CodePages: 00000001.00000000
OS2UnicodeRanges: 8000006f.4000000a.00000000.00000000
Lookup: 1 0 0 "'rtla' Right to Left Alternates lookup 0" { "'rtla' Right to Left Alternates lookup 0 subtable"  } ['rtla' ('DFLT' <'dflt' > ) ]
Lookup: 1 0 0 "'sups' Superscript lookup 1" { "'sups' Superscript lookup 1 subtable" ("superior") } ['sups' ('DFLT' <'dflt' > ) ]
Lookup: 4 0 0 "'frac' Diagonal Fractions lookup 2" { "'frac' Diagonal Fractions lookup 2 subtable"  } ['frac' ('DFLT' <'dflt' > ) ]
Lookup: 258 0 0 "'kern' Horizontal Kerning in Latin lookup 0" { "'kern' Horizontal Kerning in Latin lookup 0 subtable"  } ['kern' ('DFLT' <'dflt' > 'latn' <'dflt' > ) ]
Lookup: 258 0 0 "Pairwise Positioning (kerning) lookup 1" { "Pairwise Positioning (kerning) lookup 1 subtable"  } []
Lookup: 258 0 0 "Pairwise Positioning (kerning) lookup 2" { "Pairwise Positioning (kerning) lookup 2 subtable"  } []

StartChar: .notdef
Encoding: 65536 -1 0
Width: 614
Flags: W
LayerCount: 2
Fore
SplineSet
103 707 m 1,0,-1
 510 707 l 1,1,-1
 510 0 l 1,2,-1
 103 0 l 1,3,-1
 103 707 l 1,0,-1
475 35 m 1,4,-1
 475 672 l 1,5,-1
 138 672 l 1,6,-1
 138 35 l 1,7,-1
 475 35 l 1,4,-1
EndSplineSet
Validated: 1
EndChar

StartChar: exclam
Encoding: 33 33 5
Width: 254
GlyphClass: 2
Flags: W
LayerCount: 2
Fore
SplineSet
55 707 m 1,0,-1
 200 707 l 1,1,-1
 175 236 l 1,2,-1
 80 236 l 1,3,-1
 55 707 l 1,0,-1
60 133 m 1,4,-1
 195 133 l 1,5,-1
 195 0 l 1,6,-1
 60 0 l 1,7,-1
 60 133 l 1,4,-1
EndSplineSet
Validated: 1
EndChar

StartChar: quotedbl
Encoding: 34 34 6
Width: 405
GlyphClass: 2
Flags: W
LayerCount: 2
Fore
SplineSet
39 707 m 1,0,-1
 159 707 l 1,1,-1
 159 401 l 1,2,-1
 39 401 l 1,3,-1
 39 707 l 1,0,-1
248 707 m 1,4,-1
 367 707 l 1,5,-1
 367 401 l 1,6,-1
 248 401 l 1,7,-1
 248 707 l 1,4,-1
EndSplineSet
Validated: 1
EndChar

StartChar: numbersign
Encoding: 35 35 7
Width: 616
GlyphClass: 2
Flags: W
LayerCount: 2
Fore
SplineSet
479 416 m 1,0,-1
 465 303 l 1,1,-1
 569 303 l 1,2,-1
 569 209 l 1,3,-1
 453 209 l 1,4,-1
 425 0 l 1,5,-1
 318 0 l 1,6,-1
 346 209 l 1,7,-1
 231 209 l 1,8,-1
 204 0 l 1,9,-1
 98 0 l 1,10,-1
 126 209 l 1,11,-1
 18 209 l 1,12,-1
 18 303 l 1,13,-1
 138 303 l 1,14,-1
 154 416 l 1,15,-1
 47 416 l 1,16,-1
 47 510 l 1,17,-1
 166 510 l 1,18,-1
 191 707 l 1,19,-1
 297 707 l 1,20,-1
 271 510 l 1,21,-1
 386 510 l 1,22,-1
 412 707 l 1,23,-1
 517 707 l 1,24,-1
 492 510 l 1,25,-1
 598 510 l 1,26,-1
 598 416 l 1,27,-1
 479 416 l 1,0,-1
374 416 m 1,28,-1
 259 416 l 1,29,-1
 244 303 l 1,30,-1
 358 303 l 1,31,-1
 374 416 l 1,28,-1
EndSplineSet
Validated: 1
EndChar

StartChar: dollar
Encoding: 36 36 8
Width: 547
GlyphClass: 2
Flags: W
LayerCount: 2
Fore
SplineSet
463 93.5 m 128,-1,1
 411 43 411 43 317 33 c 1,2,-1
 317 -61 l 1,3,-1
 226 -61 l 1,4,-1
 226 32 l 1,5,6
 135 41 135 41 84 92.5 c 128,-1,7
 33 144 33 144 29 232 c 1,8,-1
 146 232 l 1,9,10
 152 182 152 182 182.5 160.5 c 128,-1,11
 213 139 213 139 275 139 c 0,12,13
 331 139 331 139 360.5 159.5 c 128,-1,14
 390 180 390 180 390 220 c 0,15,16
 390 256 390 256 370.5 275.5 c 128,-1,17
 351 295 351 295 307 300 c 2,18,-1
 230 310 l 2,19,20
 45 335 45 335 45 488 c 0,21,22
 45 567 45 567 92.5 617 c 128,-1,23
 140 667 140 667 226 678 c 1,24,-1
 226 758 l 1,25,-1
 317 758 l 1,26,-1
 317 679 l 1,27,28
 402 670 402 670 450.5 621.5 c 128,-1,29
 499 573 499 573 505 490 c 1,30,-1
 385 490 l 1,31,32
 381 533 381 533 353.5 553.5 c 128,-1,33
 326 574 326 574 272 574 c 0,34,35
 222 574 222 574 195.5 554.5 c 128,-1,36
 169 535 169 535 169 498 c 0,37,38
 169 465 169 465 191 446 c 128,-1,39
 213 427 213 427 262 420 c 2,40,-1
 342 409 l 2,41,42
 515 384 515 384 515 229 c 0,43,0
 515 144 515 144 463 93.5 c 128,-1,1
EndSplineSet
Validated: 1
EndChar

StartChar: percent
Encoding: 37 37 9
Width: 1006
GlyphClass: 2
Flags: W
LayerCount: 2
Fore
SplineSet
47 438 m 2,1,-1
 47 553 l 2,2,3
 47 632 47 632 87 672.5 c 128,-1,4
 127 713 127 713 204 713 c 0,5,6
 357 713 357 713 356 553 c 2,7,-1
 356 438 l 2,8,9
 356 270 356 270 202 270 c 256,10,0
 47 270 47 270 47 438 c 2,1,-1
679 712 m 1,11,-1
 783 712 l 1,12,-1
 329 0 l 1,13,-1
 225 0 l 1,14,-1
 679 712 l 1,11,-1
241 379.5 m 128,-1,16
 251 398 251 398 251 443 c 2,17,-1
 251 540 l 2,18,19
 251 585 251 585 240.5 604 c 128,-1,20
 230 623 230 623 203 623 c 0,21,22
 174 623 174 623 163.5 604 c 128,-1,23
 153 585 153 585 153 540 c 2,24,-1
 153 443 l 2,25,26
 153 398 153 398 163.5 379.5 c 128,-1,27
 174 361 174 361 203 361 c 256,28,15
 231 361 231 361 241 379.5 c 128,-1,16
650 162 m 2,30,-1
 650 276 l 2,31,32
 650 355 650 355 690 395.5 c 128,-1,33
 730 436 730 436 807 436 c 0,34,35
 960 436 960 436 959 276 c 2,36,-1
 959 162 l 2,37,38
 959 -6 959 -6 805 -6 c 256,39,29
 650 -6 650 -6 650 162 c 2,30,-1
844.5 103.5 m 128,-1,41
 854 122 854 122 854 167 c 2,42,-1
 854 263 l 2,43,44
 854 308 854 308 844 327 c 128,-1,45
 834 346 834 346 806 346 c 0,46,47
 777 346 777 346 766.5 327 c 128,-1,48
 756 308 756 308 756 263 c 2,49,-1
 756 167 l 2,50,51
 756 122 756 122 766.5 103.5 c 128,-1,52
 777 85 777 85 806 85 c 256,53,40
 835 85 835 85 844.5 103.5 c 128,-1,41
EndSplineSet
Validated: 33
EndChar

StartChar: ampersand
Encoding: 38 38 10
Width: 681
GlyphClass: 2
Flags: W
LayerCount: 2
Fore
SplineSet
575.5 117 m 128,-1,1
 590 110 590 110 611 110 c 2,2,-1
 634 110 l 1,3,-1
 634 0 l 1,4,-1
 579 0 l 2,5,6
 542 0 542 0 515.5 13.5 c 128,-1,7
 489 27 489 27 459 63 c 1,8,-1
 456 67 l 1,9,10
 410 23 410 23 363.5 4.5 c 128,-1,11
 317 -14 317 -14 263 -14 c 0,12,13
 162 -14 162 -14 104.5 41.5 c 128,-1,14
 47 97 47 97 47 186 c 0,15,16
 47 248 47 248 79.5 297 c 128,-1,17
 112 346 112 346 183 391 c 1,18,19
 142 442 142 442 126 477 c 128,-1,20
 110 512 110 512 110 551 c 0,21,22
 110 628 110 628 162.5 674.5 c 128,-1,23
 215 721 215 721 299 721 c 0,24,25
 384 721 384 721 437 674 c 128,-1,26
 490 627 490 627 490 551 c 0,27,28
 490 498 490 498 458.5 456.5 c 128,-1,29
 427 415 427 415 352 367 c 1,30,-1
 465 236 l 1,31,-1
 557 339 l 1,32,-1
 636 267 l 1,33,-1
 535 154 l 1,34,-1
 545 142 l 2,35,0
 561 124 561 124 575.5 117 c 128,-1,1
247 605 m 128,-1,37
 228 587 228 587 228 556 c 0,38,39
 228 533 228 533 240 509 c 128,-1,40
 252 485 252 485 285 446 c 1,41,42
 337 478 337 478 355.5 502.5 c 128,-1,43
 374 527 374 527 374 554 c 0,44,45
 374 585 374 585 354 604 c 128,-1,46
 334 623 334 623 300 623 c 256,47,36
 266 623 266 623 247 605 c 128,-1,37
327.5 107.5 m 128,-1,49
 355 120 355 120 387 150 c 1,50,-1
 253 308 l 1,51,52
 206 277 206 277 187 250.5 c 128,-1,53
 168 224 168 224 168 191 c 0,54,55
 168 146 168 146 195 120.5 c 128,-1,56
 222 95 222 95 269 95 c 0,57,48
 300 95 300 95 327.5 107.5 c 128,-1,49
EndSplineSet
Validated: 1
EndChar

StartChar: quotesingle
Encoding: 39 39 11
Width: 197
GlyphClass: 2
Flags: W
LayerCount: 2
Fore
SplineSet
39 707 m 1,0,-1
 159 707 l 1,1,-1
 159 401 l 1,2,-1
 39 401 l 1,3,-1
 39 707 l 1,0,-1
EndSplineSet
Validated: 1
EndChar

StartChar: parenleft
Encoding: 40 40 12
Width: 330
GlyphClass: 2
Flags: W
LayerCount: 2
Fore
SplineSet
83.5 112 m 128,-1,1
 47 219 47 219 47 337 c 0,2,3
 47 457 47 457 83.5 563.5 c 128,-1,4
 120 670 120 670 191 758 c 1,5,-1
 285 758 l 1,6,7
 230 666 230 666 201.5 558.5 c 128,-1,8
 173 451 173 451 173 336 c 256,9,10
 173 221 173 221 201 113.5 c 128,-1,11
 229 6 229 6 284 -86 c 1,12,-1
 190 -86 l 1,13,0
 120 5 120 5 83.5 112 c 128,-1,1
EndSplineSet
Validated: 1
Substitution2: "'rtla' Right to Left Alternates lookup 0 subtable" parenright
EndChar

StartChar: parenright
Encoding: 41 41 13
Width: 330
GlyphClass: 2
Flags: W
LayerCount: 2
Fore
SplineSet
130 113.5 m 128,-1,1
 159 221 159 221 159 336 c 256,2,3
 159 451 159 451 130.5 558.5 c 128,-1,4
 102 666 102 666 47 758 c 1,5,-1
 140 758 l 1,6,7
 211 669 211 669 248 562.5 c 128,-1,8
 285 456 285 456 285 337 c 0,9,10
 285 219 285 219 248.5 112 c 128,-1,11
 212 5 212 5 141 -86 c 1,12,-1
 47 -86 l 1,13,0
 101 6 101 6 130 113.5 c 128,-1,1
EndSplineSet
Validated: 1
Substitution2: "'rtla' Right to Left Alternates lookup 0 subtable" parenleft
EndChar

StartChar: asterisk
Encoding: 42 42 14
Width: 423
GlyphClass: 2
Flags: W
LayerCount: 2
Fore
SplineSet
177 503 m 1,0,-1
 77 452 l 1,1,-1
 47 507 l 1,2,-1
 139 554 l 1,3,-1
 47 601 l 1,4,-1
 77 656 l 1,5,-1
 177 606 l 1,6,-1
 177 707 l 1,7,-1
 248 707 l 1,8,-1
 248 605 l 1,9,-1
 348 656 l 1,10,-1
 377 601 l 1,11,-1
 285 554 l 1,12,-1
 378 507 l 1,13,-1
 347 452 l 1,14,-1
 248 502 l 1,15,-1
 248 398 l 1,16,-1
 177 398 l 1,17,-1
 177 503 l 1,0,-1
EndSplineSet
Validated: 1
EndChar

StartChar: plus
Encoding: 43 43 15
Width: 541
GlyphClass: 2
Flags: W
LayerCount: 2
Fore
SplineSet
213 224 m 1,0,-1
 49 224 l 1,1,-1
 49 341 l 1,2,-1
 213 341 l 1,3,-1
 213 505 l 1,4,-1
 330 505 l 1,5,-1
 330 341 l 1,6,-1
 493 341 l 1,7,-1
 493 224 l 1,8,-1
 330 224 l 1,9,-1
 330 60 l 1,10,-1
 213 60 l 1,11,-1
 213 224 l 1,0,-1
EndSplineSet
Validated: 1
EndChar

StartChar: comma
Encoding: 44 44 16
Width: 197
GlyphClass: 2
Flags: W
LayerCount: 2
Fore
SplineSet
39 140 m 1,0,-1
 159 140 l 1,1,-1
 159 -65 l 1,2,-1
 39 -166 l 1,3,-1
 39 140 l 1,0,-1
EndSplineSet
Validated: 1
EndChar

StartChar: hyphen
Encoding: 45 45 17
Width: 409
GlyphClass: 2
Flags: W
LayerCount: 2
Fore
SplineSet
47 413 m 1,0,-1
 364 413 l 1,1,-1
 364 295 l 1,2,-1
 47 295 l 1,3,-1
 47 413 l 1,0,-1
EndSplineSet
Validated: 1
EndChar

StartChar: period
Encoding: 46 46 18
Width: 220
GlyphClass: 2
Flags: W
LayerCount: 2
Fore
SplineSet
39 145 m 1,0,-1
 181 145 l 1,1,-1
 181 0 l 1,2,-1
 39 0 l 1,3,-1
 39 145 l 1,0,-1
EndSplineSet
Validated: 1
EndChar

StartChar: slash
Encoding: 47 47 19
Width: 455
GlyphClass: 2
Flags: W
LayerCount: 2
Fore
SplineSet
302 712 m 1,0,-1
 410 712 l 1,1,-1
 154 -10 l 1,2,-1
 47 -10 l 1,3,-1
 302 712 l 1,0,-1
EndSplineSet
Validated: 1
EndChar

StartChar: zero
Encoding: 48 48 20
Width: 577
GlyphClass: 2
Flags: W
LayerCount: 2
Fore
SplineSet
56 248 m 2,1,-1
 56 467 l 2,2,3
 56 591 56 591 116.5 654.5 c 128,-1,4
 177 718 177 718 294 718 c 0,5,6
 413 718 413 718 472 654.5 c 128,-1,7
 531 591 531 591 531 467 c 2,8,-1
 531 248 l 2,9,10
 531 120 531 120 472 54.5 c 128,-1,11
 413 -11 413 -11 294 -11 c 0,12,0
 56 -11 56 -11 56 248 c 2,1,-1
373.5 141.5 m 128,-1,14
 397 178 397 178 397 259 c 2,15,-1
 397 447 l 2,16,17
 397 528 397 528 373 564 c 128,-1,18
 349 600 349 600 294 600 c 256,19,20
 239 600 239 600 215 564 c 128,-1,21
 191 528 191 528 191 447 c 2,22,-1
 191 259 l 2,23,24
 191 178 191 178 215 141.5 c 128,-1,25
 239 105 239 105 294 105 c 0,26,13
 350 105 350 105 373.5 141.5 c 128,-1,14
EndSplineSet
Validated: 1
EndChar

StartChar: one
Encoding: 49 49 21
Width: 388
GlyphClass: 2
Flags: W
LayerCount: 2
Fore
SplineSet
187 566 m 1,0,-1
 37 479 l 1,1,-1
 37 617 l 1,2,-1
 187 707 l 1,3,-1
 322 707 l 1,4,-1
 322 0 l 1,5,-1
 187 0 l 1,6,-1
 187 566 l 1,0,-1
EndSplineSet
Validated: 1
Substitution2: "'sups' Superscript lookup 1 subtable" uni00B9
EndChar

StartChar: two
Encoding: 50 50 22
Width: 557
GlyphClass: 2
Flags: W
LayerCount: 2
Fore
SplineSet
55 106 m 1,0,-1
 319 389 l 2,1,2
 353 422 353 422 366.5 448 c 128,-1,3
 380 474 380 474 380 505 c 2,4,-1
 380 516 l 2,5,6
 380 557 380 557 353 580.5 c 128,-1,7
 326 604 326 604 279 604 c 0,8,9
 233 604 233 604 206 581.5 c 128,-1,10
 179 559 179 559 179 519 c 2,11,-1
 179 503 l 1,12,-1
 51 503 l 1,13,-1
 51 527 l 2,14,15
 51 614 51 614 112.5 666 c 128,-1,16
 174 718 174 718 281 718 c 0,17,18
 353 718 353 718 406 693 c 128,-1,19
 459 668 459 668 487 623 c 128,-1,20
 515 578 515 578 515 519 c 2,21,-1
 515 506 l 2,22,23
 515 452 515 452 493.5 408 c 128,-1,24
 472 364 472 364 427 318 c 2,25,-1
 237 118 l 1,26,-1
 516 118 l 1,27,-1
 516 0 l 1,28,-1
 55 0 l 1,29,-1
 55 106 l 1,0,-1
EndSplineSet
Validated: 1
Substitution2: "'sups' Superscript lookup 1 subtable" uni00B2
EndChar

StartChar: three
Encoding: 51 51 23
Width: 568
GlyphClass: 2
Flags: W
LayerCount: 2
Fore
SplineSet
111.5 38.5 m 128,-1,1
 51 88 51 88 51 181 c 2,2,-1
 51 193 l 1,3,-1
 176 193 l 1,4,-1
 176 184 l 2,5,6
 176 144 176 144 203.5 123 c 128,-1,7
 231 102 231 102 284 102 c 0,8,9
 335 102 335 102 362.5 127.5 c 128,-1,10
 390 153 390 153 390 198 c 2,11,-1
 390 213 l 2,12,13
 390 261 390 261 361 284 c 128,-1,14
 332 307 332 307 272 307 c 2,15,-1
 232 307 l 1,16,-1
 232 421 l 1,17,-1
 271 421 l 2,18,19
 323 421 323 421 350.5 443.5 c 128,-1,20
 378 466 378 466 378 508 c 2,21,-1
 378 520 l 2,22,23
 378 560 378 560 352.5 582 c 128,-1,24
 327 604 327 604 280 604 c 0,25,26
 232 604 232 604 206 582.5 c 128,-1,27
 180 561 180 561 180 521 c 2,28,-1
 180 512 l 1,29,-1
 57 512 l 1,30,-1
 57 521 l 2,31,32
 57 616 57 616 115.5 667 c 128,-1,33
 174 718 174 718 283 718 c 0,34,35
 389 718 389 718 449.5 669 c 128,-1,36
 510 620 510 620 510 534 c 2,37,-1
 510 520 l 2,38,39
 510 471 510 471 485 434 c 128,-1,40
 460 397 460 397 412 376 c 1,41,42
 466 358 466 358 494 315.5 c 128,-1,43
 522 273 522 273 522 213 c 2,44,-1
 522 197 l 2,45,46
 522 101 522 101 458 45 c 128,-1,47
 394 -11 394 -11 286 -11 c 0,48,0
 172 -11 172 -11 111.5 38.5 c 128,-1,1
EndSplineSet
Validated: 1
Substitution2: "'sups' Superscript lookup 1 subtable" uni00B3
EndChar

StartChar: four
Encoding: 52 52 24
Width: 590
GlyphClass: 2
Flags: W
LayerCount: 2
Fore
SplineSet
559 113 m 1,0,-1
 495 113 l 1,1,-1
 495 0 l 1,2,-1
 360 0 l 1,3,-1
 360 113 l 1,4,-1
 40 113 l 1,5,-1
 40 230 l 1,6,-1
 266 707 l 1,7,-1
 403 707 l 1,8,-1
 176 230 l 1,9,-1
 360 230 l 1,10,-1
 360 396 l 1,11,-1
 495 396 l 1,12,-1
 495 230 l 1,13,-1
 559 230 l 1,14,-1
 559 113 l 1,0,-1
EndSplineSet
Validated: 1
EndChar

StartChar: five
Encoding: 53 53 25
Width: 560
GlyphClass: 2
Flags: W
LayerCount: 2
Fore
SplineSet
116.5 37 m 128,-1,1
 56 85 56 85 56 170 c 2,2,-1
 56 178 l 1,3,-1
 184 178 l 1,4,-1
 184 174 l 2,5,6
 184 142 184 142 210.5 122 c 128,-1,7
 237 102 237 102 281 102 c 0,8,9
 331 102 331 102 356.5 131 c 128,-1,10
 382 160 382 160 382 212 c 2,11,-1
 382 244 l 2,12,13
 382 298 382 298 356 326.5 c 128,-1,14
 330 355 330 355 281 355 c 0,15,16
 248 355 248 355 223.5 341.5 c 128,-1,17
 199 328 199 328 186 304 c 1,18,-1
 69 304 l 1,19,-1
 69 707 l 1,20,-1
 493 707 l 1,21,-1
 493 592 l 1,22,-1
 184 592 l 1,23,-1
 184 427 l 1,24,25
 235 465 235 465 309 465 c 0,26,27
 406 465 406 465 460 408 c 128,-1,28
 514 351 514 351 514 249 c 2,29,-1
 514 210 l 2,30,31
 514 106 514 106 452.5 47.5 c 128,-1,32
 391 -11 391 -11 280 -11 c 0,33,0
 177 -11 177 -11 116.5 37 c 128,-1,1
EndSplineSet
Validated: 1
EndChar

StartChar: six
Encoding: 54 54 26
Width: 582
GlyphClass: 2
Flags: W
LayerCount: 2
Fore
SplineSet
115.5 45.5 m 128,-1,1
 51 102 51 102 51 204 c 2,2,-1
 51 224 l 2,3,4
 51 302 51 302 102 392 c 2,5,-1
 285 707 l 1,6,-1
 430 707 l 1,7,-1
 262 417 l 1,8,9
 291 431 291 431 337 431 c 0,10,11
 429 431 429 431 485.5 376.5 c 128,-1,12
 542 322 542 322 542 229 c 2,13,-1
 542 208 l 2,14,15
 542 106 542 106 475.5 47.5 c 128,-1,16
 409 -11 409 -11 296 -11 c 0,17,0
 180 -11 180 -11 115.5 45.5 c 128,-1,1
378 129 m 128,-1,19
 408 156 408 156 408 203 c 2,20,-1
 408 221 l 2,21,22
 408 268 408 268 378 293.5 c 128,-1,23
 348 319 348 319 296 319 c 256,24,25
 244 319 244 319 214.5 293.5 c 128,-1,26
 185 268 185 268 185 222 c 2,27,-1
 185 203 l 2,28,29
 185 156 185 156 214.5 129 c 128,-1,30
 244 102 244 102 296 102 c 256,31,18
 348 102 348 102 378 129 c 128,-1,19
EndSplineSet
Validated: 1
EndChar

StartChar: seven
Encoding: 55 55 27
Width: 519
GlyphClass: 2
Flags: W
LayerCount: 2
Fore
SplineSet
492 707 m 1,0,-1
 492 590 l 1,1,-1
 243 0 l 1,2,-1
 106 0 l 1,3,-1
 357 590 l 1,4,-1
 34 590 l 1,5,-1
 34 707 l 1,6,-1
 492 707 l 1,0,-1
EndSplineSet
Validated: 1
EndChar

StartChar: eight
Encoding: 56 56 28
Width: 591
GlyphClass: 2
Flags: W
LayerCount: 2
Fore
SplineSet
122.5 45.5 m 128,-1,1
 56 102 56 102 56 200 c 2,2,-1
 56 214 l 2,3,4
 56 265 56 265 82.5 306.5 c 128,-1,5
 109 348 109 348 156 371 c 1,6,7
 117 390 117 390 94.5 427 c 128,-1,8
 72 464 72 464 72 511 c 2,9,-1
 72 522 l 2,10,11
 72 579 72 579 99.5 624 c 128,-1,12
 127 669 127 669 179 693.5 c 128,-1,13
 231 718 231 718 302 718 c 256,14,15
 373 718 373 718 425 693.5 c 128,-1,16
 477 669 477 669 504.5 624.5 c 128,-1,17
 532 580 532 580 532 522 c 2,18,-1
 532 511 l 2,19,20
 532 465 532 465 509 427.5 c 128,-1,21
 486 390 486 390 447 371 c 1,22,23
 494 347 494 347 520 305.5 c 128,-1,24
 546 264 546 264 546 215 c 2,25,-1
 546 201 l 2,26,27
 546 103 546 103 479.5 46 c 128,-1,28
 413 -11 413 -11 301 -11 c 256,29,0
 189 -11 189 -11 122.5 45.5 c 128,-1,1
374.5 447 m 128,-1,31
 400 470 400 470 400 510 c 2,32,-1
 400 521 l 2,33,34
 400 560 400 560 374 582 c 128,-1,35
 348 604 348 604 302 604 c 0,36,37
 255 604 255 604 229 582 c 128,-1,38
 203 560 203 560 203 521 c 2,39,-1
 203 510 l 2,40,41
 203 470 203 470 228.5 447 c 128,-1,42
 254 424 254 424 302 424 c 0,43,30
 349 424 349 424 374.5 447 c 128,-1,31
385 128.5 m 128,-1,45
 415 155 415 155 415 202 c 2,46,-1
 415 217 l 2,47,48
 415 262 415 262 385 287.5 c 128,-1,49
 355 313 355 313 302 313 c 256,50,51
 249 313 249 313 218.5 287.5 c 128,-1,52
 188 262 188 262 188 217 c 2,53,-1
 188 202 l 2,54,55
 188 155 188 155 218 128.5 c 128,-1,56
 248 102 248 102 302 102 c 0,57,44
 355 102 355 102 385 128.5 c 128,-1,45
EndSplineSet
Validated: 1
EndChar

StartChar: nine
Encoding: 57 57 29
Width: 582
GlyphClass: 2
Flags: W
LayerCount: 2
Fore
SplineSet
330 290 m 1,0,1
 298 276 298 276 256 275 c 0,2,3
 164 275 164 275 107.5 330.5 c 128,-1,4
 51 386 51 386 51 478 c 2,5,-1
 51 500 l 2,6,7
 51 602 51 602 116.5 660 c 128,-1,8
 182 718 182 718 296 718 c 0,9,10
 412 718 412 718 477 661 c 128,-1,11
 542 604 542 604 542 504 c 2,12,-1
 542 482 l 2,13,14
 542 403 542 403 489 314 c 2,15,-1
 307 0 l 1,16,-1
 163 0 l 1,17,-1
 330 290 l 1,0,1
377.5 413 m 128,-1,19
 407 439 407 439 407 485 c 2,20,-1
 407 505 l 2,21,22
 407 552 407 552 377.5 578 c 128,-1,23
 348 604 348 604 296 604 c 256,24,25
 244 604 244 604 214.5 577.5 c 128,-1,26
 185 551 185 551 185 504 c 2,27,-1
 185 486 l 2,28,29
 185 439 185 439 214.5 413 c 128,-1,30
 244 387 244 387 296 387 c 256,31,18
 348 387 348 387 377.5 413 c 128,-1,19
EndSplineSet
Validated: 1
EndChar

StartChar: colon
Encoding: 58 58 30
Width: 220
GlyphClass: 2
Flags: W
LayerCount: 2
Fore
SplineSet
39 492 m 1,0,-1
 181 492 l 1,1,-1
 181 346 l 1,2,-1
 39 346 l 1,3,-1
 39 492 l 1,0,-1
39 145 m 1,4,-1
 181 145 l 1,5,-1
 181 0 l 1,6,-1
 39 0 l 1,7,-1
 39 145 l 1,4,-1
EndSplineSet
Validated: 1
EndChar

StartChar: semicolon
Encoding: 59 59 31
Width: 220
GlyphClass: 2
Flags: W
LayerCount: 2
Fore
SplineSet
39 492 m 1,0,-1
 181 492 l 1,1,-1
 181 346 l 1,2,-1
 39 346 l 1,3,-1
 39 492 l 1,0,-1
59 140 m 1,4,-1
 179 140 l 1,5,-1
 179 -65 l 1,6,-1
 59 -166 l 1,7,-1
 59 140 l 1,4,-1
EndSplineSet
Validated: 1
EndChar

StartChar: less
Encoding: 60 60 32
Width: 541
GlyphClass: 2
Flags: W
LayerCount: 2
Fore
SplineSet
49 228 m 1,0,-1
 49 334 l 1,1,-1
 492 507 l 1,2,-1
 492 389 l 1,3,-1
 207 281 l 1,4,-1
 492 173 l 1,5,-1
 492 54 l 1,6,-1
 49 228 l 1,0,-1
EndSplineSet
Validated: 1
Substitution2: "'rtla' Right to Left Alternates lookup 0 subtable" greater
EndChar

StartChar: equal
Encoding: 61 61 33
Width: 541
GlyphClass: 2
Flags: W
LayerCount: 2
Fore
SplineSet
50 447 m 1,0,-1
 492 447 l 1,1,-1
 492 332 l 1,2,-1
 50 332 l 1,3,-1
 50 447 l 1,0,-1
50 233 m 1,4,-1
 492 233 l 1,5,-1
 492 118 l 1,6,-1
 50 118 l 1,7,-1
 50 233 l 1,4,-1
EndSplineSet
Validated: 1
EndChar

StartChar: greater
Encoding: 62 62 34
Width: 541
GlyphClass: 2
Flags: W
LayerCount: 2
Fore
SplineSet
49 173 m 1,0,-1
 334 281 l 1,1,-1
 49 389 l 1,2,-1
 49 507 l 1,3,-1
 492 334 l 1,4,-1
 492 228 l 1,5,-1
 49 54 l 1,6,-1
 49 173 l 1,0,-1
EndSplineSet
Validated: 1
Substitution2: "'rtla' Right to Left Alternates lookup 0 subtable" less
EndChar

StartChar: question
Encoding: 63 63 35
Width: 512
GlyphClass: 2
Flags: W
LayerCount: 2
Fore
SplineSet
184 245 m 2,0,1
 184 294 184 294 195.5 322.5 c 128,-1,2
 207 351 207 351 243 384 c 2,3,-1
 295 438 l 2,4,5
 324 465 324 465 335 484.5 c 128,-1,6
 346 504 346 504 346 527 c 0,7,8
 346 563 346 563 321.5 582 c 128,-1,9
 297 601 297 601 248 601 c 256,10,11
 199 601 199 601 176 581 c 128,-1,12
 153 561 153 561 152 520 c 1,13,-1
 28 520 l 1,14,15
 34 717 34 717 251 717 c 0,16,17
 357 717 357 717 417 668.5 c 128,-1,18
 477 620 477 620 477 534 c 0,19,20
 477 449 477 449 411 386 c 1,21,-1
 352 324 l 2,22,23
 328 301 328 301 319.5 281.5 c 128,-1,24
 311 262 311 262 311 229 c 2,25,-1
 311 198 l 1,26,-1
 184 198 l 1,27,-1
 184 245 l 2,0,1
180 129 m 1,28,-1
 314 129 l 1,29,-1
 314 0 l 1,30,-1
 180 0 l 1,31,-1
 180 129 l 1,28,-1
EndSplineSet
Validated: 1
EndChar

StartChar: at
Encoding: 64 64 36
Width: 894
GlyphClass: 2
Flags: W
LayerCount: 2
Fore
SplineSet
239.5 -90 m 128,-1,1
 148 -41 148 -41 97.5 47.5 c 128,-1,2
 47 136 47 136 47 252 c 2,3,-1
 47 324 l 2,4,5
 47 440 47 440 97.5 528 c 128,-1,6
 148 616 148 616 239.5 665.5 c 128,-1,7
 331 715 331 715 449 715 c 0,8,9
 565 715 565 715 655.5 666 c 128,-1,10
 746 617 746 617 797.5 529 c 128,-1,11
 849 441 849 441 849 329 c 2,12,-1
 849 257 l 2,13,14
 849 159 849 159 800 107 c 128,-1,15
 751 55 751 55 676 55 c 0,16,17
 630 55 630 55 597 72.5 c 128,-1,18
 564 90 564 90 547 122 c 1,19,20
 514 55 514 55 416 55 c 0,21,22
 261 55 261 55 261 241 c 2,23,-1
 261 331 l 2,24,25
 261 419 261 419 297.5 468 c 128,-1,26
 334 517 334 517 409 517 c 0,27,28
 446 517 446 517 474 502.5 c 128,-1,29
 502 488 502 488 515 465 c 1,30,-1
 515 506 l 1,31,-1
 627 506 l 1,32,-1
 627 214 l 2,33,34
 627 181 627 181 640.5 165.5 c 128,-1,35
 654 150 654 150 677 150 c 0,36,37
 706 150 706 150 720 175 c 128,-1,38
 734 200 734 200 734 256 c 2,39,-1
 734 328 l 2,40,41
 734 415 734 415 700 479 c 128,-1,42
 666 543 666 543 602 577.5 c 128,-1,43
 538 612 538 612 449 612 c 0,44,45
 315 612 315 612 238.5 535.5 c 128,-1,46
 162 459 162 459 162 326 c 2,47,-1
 162 253 l 2,48,49
 162 166 162 166 196 100.5 c 128,-1,50
 230 35 230 35 294.5 -1 c 128,-1,51
 359 -37 359 -37 449 -37 c 0,52,53
 510 -37 510 -37 559 -24 c 128,-1,54
 608 -11 608 -11 660 15 c 1,55,-1
 706 -72 l 1,56,57
 647 -107 647 -107 585 -123 c 128,-1,58
 523 -139 523 -139 449 -139 c 0,59,0
 331 -139 331 -139 239.5 -90 c 128,-1,1
513 244 m 2,61,-1
 513 330 l 2,62,63
 513 421 513 421 445 421 c 0,64,65
 409 421 409 421 392.5 397 c 128,-1,66
 376 373 376 373 376 331 c 2,67,-1
 376 247 l 2,68,69
 376 201 376 201 392.5 176.5 c 128,-1,70
 409 152 409 152 445 152 c 0,71,60
 513 152 513 152 513 244 c 2,61,-1
EndSplineSet
Validated: 1
EndChar

StartChar: A
Encoding: 65 65 37
Width: 697
GlyphClass: 2
Flags: W
LayerCount: 2
Fore
SplineSet
499 137 m 1,0,-1
 199 137 l 1,1,-1
 147 0 l 1,2,-1
 4 0 l 1,3,-1
 294 707 l 1,4,-1
 403 707 l 1,5,-1
 693 0 l 1,6,-1
 550 0 l 1,7,-1
 499 137 l 1,0,-1
457 249 m 1,8,-1
 348 537 l 1,9,-1
 241 249 l 1,10,-1
 457 249 l 1,8,-1
EndSplineSet
Validated: 1
EndChar

StartChar: B
Encoding: 66 66 38
Width: 669
GlyphClass: 2
Flags: W
LayerCount: 2
Fore
SplineSet
595.5 301 m 128,-1,1
 624 260 624 260 624 203 c 0,2,3
 624 106 624 106 561 53 c 128,-1,4
 498 0 498 0 380 0 c 2,5,-1
 60 0 l 1,6,-1
 60 707 l 1,7,-1
 367 707 l 2,8,9
 487 707 487 707 550 656 c 128,-1,10
 613 605 613 605 613 510 c 0,11,12
 613 462 613 462 587 423.5 c 128,-1,13
 561 385 561 385 513 364 c 1,14,0
 567 342 567 342 595.5 301 c 128,-1,1
195 590 m 1,15,-1
 195 418 l 1,16,-1
 368 418 l 2,17,18
 480 418 480 418 479 502 c 0,19,20
 479 590 479 590 373 590 c 2,21,-1
 195 590 l 1,15,-1
490 212 m 0,23,24
 490 301 490 301 377 301 c 2,25,-1
 195 301 l 1,26,-1
 195 117 l 1,27,-1
 382 117 l 2,28,22
 490 117 490 117 490 212 c 0,23,24
EndSplineSet
Validated: 33
EndChar

StartChar: C
Encoding: 67 67 39
Width: 689
GlyphClass: 2
Flags: W
LayerCount: 2
Fore
SplineSet
135.5 66.5 m 128,-1,1
 56 144 56 144 56 299 c 2,2,-1
 56 410 l 2,3,4
 56 565 56 565 136 642.5 c 128,-1,5
 216 720 216 720 358 720 c 0,6,7
 488 720 488 720 565.5 656 c 128,-1,8
 643 592 643 592 643 478 c 2,9,-1
 643 470 l 1,10,-1
 509 470 l 1,11,-1
 509 474 l 2,12,13
 509 533 509 533 469 567.5 c 128,-1,14
 429 602 429 602 358 602 c 0,15,16
 274 602 274 602 232.5 553 c 128,-1,17
 191 504 191 504 191 402 c 2,18,-1
 191 301 l 2,19,20
 191 204 191 204 233 157 c 128,-1,21
 275 110 275 110 359 110 c 0,22,23
 430 110 430 110 469.5 143 c 128,-1,24
 509 176 509 176 509 234 c 2,25,-1
 509 240 l 1,26,-1
 642 240 l 1,27,-1
 642 234 l 2,28,29
 642 117 642 117 565 53 c 128,-1,30
 488 -11 488 -11 357 -11 c 0,31,0
 215 -11 215 -11 135.5 66.5 c 128,-1,1
EndSplineSet
Validated: 1
EndChar

StartChar: D
Encoding: 68 68 40
Width: 677
GlyphClass: 2
Flags: W
LayerCount: 2
Fore
SplineSet
60 707 m 1,0,-1
 336 707 l 2,1,2
 477 707 477 707 554.5 631 c 128,-1,3
 632 555 632 555 632 397 c 2,4,-1
 632 310 l 2,5,6
 632 152 632 152 553 76 c 128,-1,7
 474 0 474 0 331 0 c 2,8,-1
 60 0 l 1,9,-1
 60 707 l 1,0,-1
335 117 m 2,10,11
 418 117 418 117 458 163.5 c 128,-1,12
 498 210 498 210 498 310 c 2,13,-1
 498 390 l 2,14,15
 498 494 498 494 458 542 c 128,-1,16
 418 590 418 590 335 590 c 2,17,-1
 195 590 l 1,18,-1
 195 117 l 1,19,-1
 335 117 l 2,10,11
EndSplineSet
Validated: 1
EndChar

StartChar: E
Encoding: 69 69 41
Width: 601
GlyphClass: 2
Flags: W
LayerCount: 2
Fore
SplineSet
195 590 m 1,0,-1
 195 415 l 1,1,-1
 513 415 l 1,2,-1
 513 298 l 1,3,-1
 195 298 l 1,4,-1
 195 117 l 1,5,-1
 565 117 l 1,6,-1
 565 0 l 1,7,-1
 60 0 l 1,8,-1
 60 707 l 1,9,-1
 565 707 l 1,10,-1
 565 590 l 1,11,-1
 195 590 l 1,0,-1
EndSplineSet
Validated: 1
EndChar

StartChar: F
Encoding: 70 70 42
Width: 595
GlyphClass: 2
Flags: W
LayerCount: 2
Fore
SplineSet
195 590 m 1,0,-1
 195 409 l 1,1,-1
 515 409 l 1,2,-1
 515 292 l 1,3,-1
 195 292 l 1,4,-1
 195 0 l 1,5,-1
 60 0 l 1,6,-1
 60 707 l 1,7,-1
 565 707 l 1,8,-1
 565 590 l 1,9,-1
 195 590 l 1,0,-1
EndSplineSet
Validated: 1
EndChar

StartChar: G
Encoding: 71 71 43
Width: 689
GlyphClass: 2
Flags: W
LayerCount: 2
Fore
SplineSet
136 66.5 m 128,-1,1
 56 144 56 144 56 299 c 2,2,-1
 56 410 l 2,3,4
 56 565 56 565 136 642.5 c 128,-1,5
 216 720 216 720 358 720 c 0,6,7
 443 720 443 720 507.5 692 c 128,-1,8
 572 664 572 664 607.5 609.5 c 128,-1,9
 643 555 643 555 643 481 c 2,10,-1
 643 473 l 1,11,-1
 509 473 l 1,12,-1
 509 477 l 2,13,14
 509 533 509 533 469 567.5 c 128,-1,15
 429 602 429 602 358 602 c 0,16,17
 274 602 274 602 232.5 553.5 c 128,-1,18
 191 505 191 505 191 403 c 2,19,-1
 191 302 l 2,20,21
 191 203 191 203 232.5 156.5 c 128,-1,22
 274 110 274 110 359 110 c 0,23,24
 436 110 436 110 473 143 c 128,-1,25
 510 176 510 176 510 243 c 2,26,-1
 510 268 l 1,27,-1
 355 268 l 1,28,-1
 355 379 l 1,29,-1
 643 379 l 1,30,-1
 643 262 l 2,31,32
 643 125 643 125 566.5 57 c 128,-1,33
 490 -11 490 -11 357 -11 c 0,34,0
 216 -11 216 -11 136 66.5 c 128,-1,1
EndSplineSet
Validated: 1
EndChar

StartChar: H
Encoding: 72 72 44
Width: 687
GlyphClass: 2
Flags: W
LayerCount: 2
Fore
SplineSet
627 707 m 1,0,-1
 627 0 l 1,1,-1
 493 0 l 1,2,-1
 493 299 l 1,3,-1
 195 299 l 1,4,-1
 195 0 l 1,5,-1
 60 0 l 1,6,-1
 60 707 l 1,7,-1
 195 707 l 1,8,-1
 195 416 l 1,9,-1
 493 416 l 1,10,-1
 493 707 l 1,11,-1
 627 707 l 1,0,-1
EndSplineSet
Validated: 1
EndChar

StartChar: I
Encoding: 73 73 45
Width: 267
GlyphClass: 2
Flags: W
LayerCount: 2
Fore
SplineSet
67 707 m 1,0,-1
 201 707 l 1,1,-1
 201 0 l 1,2,-1
 67 0 l 1,3,-1
 67 707 l 1,0,-1
EndSplineSet
Validated: 1
EndChar

StartChar: J
Encoding: 74 74 46
Width: 370
GlyphClass: 2
Flags: W
LayerCount: 2
Fore
SplineSet
25 118 m 1,0,-1
 87 118 l 2,1,2
 134 118 134 118 151.5 136 c 128,-1,3
 169 154 169 154 169 200 c 2,4,-1
 169 707 l 1,5,-1
 304 707 l 1,6,-1
 304 177 l 2,7,8
 304 89 304 89 258 44.5 c 128,-1,9
 212 0 212 0 122 0 c 2,10,-1
 25 0 l 1,11,-1
 25 118 l 1,0,-1
EndSplineSet
Validated: 1
EndChar

StartChar: K
Encoding: 75 75 47
Width: 694
GlyphClass: 2
Flags: W
LayerCount: 2
Fore
SplineSet
314 326 m 1,0,-1
 195 197 l 1,1,-1
 195 0 l 1,2,-1
 60 0 l 1,3,-1
 60 707 l 1,4,-1
 195 707 l 1,5,-1
 195 364 l 1,6,-1
 496 707 l 1,7,-1
 668 707 l 1,8,-1
 404 422 l 1,9,-1
 688 0 l 1,10,-1
 525 0 l 1,11,-1
 314 326 l 1,0,-1
EndSplineSet
Validated: 1
EndChar

StartChar: L
Encoding: 76 76 48
Width: 583
GlyphClass: 2
Flags: W
LayerCount: 2
Fore
SplineSet
60 707 m 1,0,-1
 195 707 l 1,1,-1
 195 117 l 1,2,-1
 559 117 l 1,3,-1
 559 0 l 1,4,-1
 60 0 l 1,5,-1
 60 707 l 1,0,-1
EndSplineSet
Validated: 1
EndChar

StartChar: M
Encoding: 77 77 49
Width: 828
GlyphClass: 2
Flags: W
LayerCount: 2
Fore
SplineSet
768 707 m 1,0,-1
 768 0 l 1,1,-1
 634 0 l 1,2,-1
 634 447 l 1,3,-1
 461 136 l 1,4,-1
 371 136 l 1,5,-1
 195 451 l 1,6,-1
 195 0 l 1,7,-1
 60 0 l 1,8,-1
 60 707 l 1,9,-1
 195 707 l 1,10,-1
 416 302 l 1,11,-1
 634 707 l 1,12,-1
 768 707 l 1,0,-1
EndSplineSet
Validated: 1
EndChar

StartChar: N
Encoding: 78 78 50
Width: 715
GlyphClass: 2
Flags: W
LayerCount: 2
Fore
SplineSet
655 707 m 1,0,-1
 655 0 l 1,1,-1
 521 0 l 1,2,-1
 195 468 l 1,3,-1
 195 0 l 1,4,-1
 60 0 l 1,5,-1
 60 707 l 1,6,-1
 195 707 l 1,7,-1
 521 238 l 1,8,-1
 521 707 l 1,9,-1
 655 707 l 1,0,-1
EndSplineSet
Validated: 1
EndChar

StartChar: O
Encoding: 79 79 51
Width: 689
GlyphClass: 2
Flags: W
LayerCount: 2
Fore
SplineSet
133 66.5 m 128,-1,1
 56 144 56 144 56 299 c 2,2,-1
 56 410 l 2,3,4
 56 565 56 565 134.5 642.5 c 128,-1,5
 213 720 213 720 351 720 c 0,6,7
 487 720 487 720 565 642 c 128,-1,8
 643 564 643 564 643 410 c 2,9,-1
 643 299 l 2,10,11
 643 145 643 145 563.5 67 c 128,-1,12
 484 -11 484 -11 347 -11 c 256,13,0
 210 -11 210 -11 133 66.5 c 128,-1,1
509 301 m 2,15,-1
 509 402 l 2,16,17
 509 602 509 602 351 602 c 0,18,19
 270 602 270 602 230.5 553 c 128,-1,20
 191 504 191 504 191 402 c 2,21,-1
 191 301 l 2,22,23
 191 204 191 204 230.5 157 c 128,-1,24
 270 110 270 110 351 110 c 0,25,14
 509 110 509 110 509 301 c 2,15,-1
EndSplineSet
Validated: 1
EndChar

StartChar: P
Encoding: 80 80 52
Width: 643
GlyphClass: 2
Flags: W
LayerCount: 2
Fore
SplineSet
551 649.5 m 128,-1,1
 618 592 618 592 618 485 c 0,2,3
 618 383 618 383 551 325.5 c 128,-1,4
 484 268 484 268 360 268 c 2,5,-1
 195 268 l 1,6,-1
 195 0 l 1,7,-1
 60 0 l 1,8,-1
 60 707 l 1,9,-1
 366 707 l 2,10,0
 484 707 484 707 551 649.5 c 128,-1,1
484 486 m 0,12,13
 484 538 484 538 454.5 564 c 128,-1,14
 425 590 425 590 371 590 c 2,15,-1
 195 590 l 1,16,-1
 195 386 l 1,17,-1
 371 386 l 2,18,11
 484 386 484 386 484 486 c 0,12,13
EndSplineSet
Validated: 1
EndChar

StartChar: Q
Encoding: 81 81 53
Width: 689
GlyphClass: 2
Flags: W
LayerCount: 2
Fore
SplineSet
541 47 m 1,1,-1
 622 -101 l 1,2,-1
 519 -158 l 1,3,-1
 434 -2 l 1,4,5
 394 -11 394 -11 347 -11 c 0,6,7
 210 -11 210 -11 133 66.5 c 128,-1,8
 56 144 56 144 56 299 c 2,9,-1
 56 410 l 2,10,11
 56 565 56 565 134.5 642.5 c 128,-1,12
 213 720 213 720 351 720 c 0,13,14
 487 720 487 720 565 642 c 128,-1,15
 643 564 643 564 643 410 c 2,16,-1
 643 299 l 2,17,0
 643 127 643 127 541 47 c 1,1,-1
230.5 157 m 128,-1,19
 270 110 270 110 351 110 c 0,20,21
 509 110 509 110 509 301 c 2,22,-1
 509 402 l 2,23,24
 509 602 509 602 351 602 c 0,25,26
 270 602 270 602 230.5 553 c 128,-1,27
 191 504 191 504 191 402 c 2,28,-1
 191 301 l 2,29,18
 191 204 191 204 230.5 157 c 128,-1,19
EndSplineSet
Validated: 1
EndChar

StartChar: R
Encoding: 82 82 54
Width: 679
GlyphClass: 2
Flags: W
LayerCount: 2
Fore
SplineSet
335 278 m 1,0,-1
 195 278 l 1,1,-1
 195 0 l 1,2,-1
 60 0 l 1,3,-1
 60 707 l 1,4,-1
 368 707 l 2,5,6
 484 707 484 707 550.5 651.5 c 128,-1,7
 617 596 617 596 617 492 c 0,8,9
 617 416 617 416 581 366 c 128,-1,10
 545 316 545 316 474 294 c 1,11,-1
 649 0 l 1,12,-1
 489 0 l 1,13,-1
 335 278 l 1,0,-1
195 392 m 1,14,-1
 372 392 l 2,15,16
 485 392 485 392 484 492 c 0,17,18
 484 541 484 541 454.5 565.5 c 128,-1,19
 425 590 425 590 372 590 c 2,20,-1
 195 590 l 1,21,-1
 195 392 l 1,14,-1
EndSplineSet
Validated: 33
EndChar

StartChar: S
Encoding: 83 83 55
Width: 622
GlyphClass: 2
Flags: W
LayerCount: 2
Fore
SplineSet
107.5 51 m 128,-1,1
 37 108 37 108 29 215 c 1,2,-1
 157 215 l 1,3,4
 164 159 164 159 202.5 134 c 128,-1,5
 241 109 241 109 314 109 c 0,6,7
 458 109 458 109 459 204 c 0,8,9
 459 246 459 246 430 268 c 128,-1,10
 401 290 401 290 336 297 c 2,11,-1
 261 306 l 2,12,13
 46 333 46 333 46 504 c 0,14,15
 46 603 46 603 117.5 660 c 128,-1,16
 189 717 189 717 313 717 c 0,17,18
 433 717 433 717 500.5 662.5 c 128,-1,19
 568 608 568 608 577 506 c 1,20,-1
 447 506 l 1,21,22
 443 557 443 557 410 580.5 c 128,-1,23
 377 604 377 604 310 604 c 256,24,25
 243 604 243 604 209.5 580.5 c 128,-1,26
 176 557 176 557 176 514 c 0,27,28
 176 475 176 475 206 453.5 c 128,-1,29
 236 432 236 432 301 424 c 2,30,-1
 386 413 l 2,31,32
 486 400 486 400 538.5 350 c 128,-1,33
 591 300 591 300 591 214 c 0,34,35
 591 108 591 108 515 51 c 128,-1,36
 439 -6 439 -6 307 -6 c 0,37,0
 178 -6 178 -6 107.5 51 c 128,-1,1
EndSplineSet
Validated: 1
EndChar

StartChar: T
Encoding: 84 84 56
Width: 570
GlyphClass: 2
Flags: W
LayerCount: 2
Fore
SplineSet
564 590 m 1,0,-1
 352 590 l 1,1,-1
 352 0 l 1,2,-1
 218 0 l 1,3,-1
 218 590 l 1,4,-1
 6 590 l 1,5,-1
 6 707 l 1,6,-1
 564 707 l 1,7,-1
 564 590 l 1,0,-1
EndSplineSet
Validated: 1
EndChar

StartChar: U
Encoding: 85 85 57
Width: 692
GlyphClass: 2
Flags: W
LayerCount: 2
Fore
SplineSet
195.5 25.5 m 128,-1,1
 131 57 131 57 95.5 116 c 128,-1,2
 60 175 60 175 60 254 c 2,3,-1
 60 707 l 1,4,-1
 195 707 l 1,5,-1
 195 258 l 2,6,7
 195 186 195 186 233.5 148.5 c 128,-1,8
 272 111 272 111 345 111 c 256,9,10
 418 111 418 111 458 148.5 c 128,-1,11
 498 186 498 186 498 258 c 2,12,-1
 498 707 l 1,13,-1
 632 707 l 1,14,-1
 632 254 l 2,15,16
 632 175 632 175 596.5 116 c 128,-1,17
 561 57 561 57 496 25.5 c 128,-1,18
 431 -6 431 -6 345 -6 c 0,19,0
 260 -6 260 -6 195.5 25.5 c 128,-1,1
EndSplineSet
Validated: 1
EndChar

StartChar: V
Encoding: 86 86 58
Width: 637
GlyphClass: 2
Flags: W
LayerCount: 2
Fore
SplineSet
4 707 m 1,0,-1
 147 707 l 1,1,-1
 318 198 l 1,2,-1
 490 707 l 1,3,-1
 634 707 l 1,4,-1
 372 0 l 1,5,-1
 264 0 l 1,6,-1
 4 707 l 1,0,-1
EndSplineSet
Validated: 1
EndChar

StartChar: W
Encoding: 87 87 59
Width: 958
GlyphClass: 2
Flags: W
LayerCount: 2
Fore
SplineSet
954 707 m 1,0,-1
 757 0 l 1,1,-1
 634 0 l 1,2,-1
 482 544 l 1,3,-1
 330 0 l 1,4,-1
 208 0 l 1,5,-1
 4 707 l 1,6,-1
 141 707 l 1,7,-1
 275 189 l 1,8,-1
 399 707 l 1,9,-1
 565 707 l 1,10,-1
 701 189 l 1,11,-1
 822 707 l 1,12,-1
 954 707 l 1,0,-1
EndSplineSet
Validated: 1
EndChar

StartChar: X
Encoding: 88 88 60
Width: 681
GlyphClass: 2
Flags: W
LayerCount: 2
Fore
SplineSet
259 367 m 1,0,-1
 23 707 l 1,1,-1
 187 707 l 1,2,-1
 344 473 l 1,3,-1
 490 707 l 1,4,-1
 652 707 l 1,5,-1
 420 373 l 1,6,-1
 678 0 l 1,7,-1
 513 0 l 1,8,-1
 336 265 l 1,9,-1
 166 0 l 1,10,-1
 4 0 l 1,11,-1
 259 367 l 1,0,-1
EndSplineSet
Validated: 1
EndChar

StartChar: Y
Encoding: 89 89 61
Width: 622
GlyphClass: 2
Flags: W
LayerCount: 2
Fore
SplineSet
379 292 m 1,0,-1
 379 0 l 1,1,-1
 245 0 l 1,2,-1
 245 291 l 1,3,-1
 4 707 l 1,4,-1
 156 707 l 1,5,-1
 311 411 l 1,6,-1
 467 707 l 1,7,-1
 618 707 l 1,8,-1
 379 292 l 1,0,-1
EndSplineSet
Validated: 1
EndChar

StartChar: Z
Encoding: 90 90 62
Width: 574
GlyphClass: 2
Flags: W
LayerCount: 2
Fore
SplineSet
547 118 m 1,0,-1
 547 0 l 1,1,-1
 31 0 l 1,2,-1
 31 118 l 1,3,-1
 383 590 l 1,4,-1
 38 590 l 1,5,-1
 38 707 l 1,6,-1
 537 707 l 1,7,-1
 537 590 l 1,8,-1
 185 118 l 1,9,-1
 547 118 l 1,0,-1
EndSplineSet
Validated: 1
EndChar

StartChar: bracketleft
Encoding: 91 91 63
Width: 349
GlyphClass: 2
Flags: W
LayerCount: 2
Fore
SplineSet
60 759 m 1,0,-1
 303 759 l 1,1,-1
 303 641 l 1,2,-1
 187 641 l 1,3,-1
 187 32 l 1,4,-1
 303 32 l 1,5,-1
 303 -86 l 1,6,-1
 60 -86 l 1,7,-1
 60 759 l 1,0,-1
EndSplineSet
Validated: 1
Substitution2: "'rtla' Right to Left Alternates lookup 0 subtable" bracketright
EndChar

StartChar: backslash
Encoding: 92 92 64
Width: 455
GlyphClass: 2
Flags: W
LayerCount: 2
Fore
SplineSet
47 712 m 1,0,-1
 154 712 l 1,1,-1
 410 -10 l 1,2,-1
 303 -10 l 1,3,-1
 47 712 l 1,0,-1
EndSplineSet
Validated: 1
EndChar

StartChar: bracketright
Encoding: 93 93 65
Width: 350
GlyphClass: 2
Flags: W
LayerCount: 2
Fore
SplineSet
47 32 m 1,0,-1
 163 32 l 1,1,-1
 163 640 l 1,2,-1
 47 640 l 1,3,-1
 47 757 l 1,4,-1
 290 757 l 1,5,-1
 290 -86 l 1,6,-1
 47 -86 l 1,7,-1
 47 32 l 1,0,-1
EndSplineSet
Validated: 1
Substitution2: "'rtla' Right to Left Alternates lookup 0 subtable" bracketleft
EndChar

StartChar: asciicircum
Encoding: 94 94 66
Width: 541
GlyphClass: 2
Flags: W
LayerCount: 2
Fore
SplineSet
217 712 m 1,0,-1
 324 712 l 1,1,-1
 498 278 l 1,2,-1
 392 278 l 1,3,-1
 270 589 l 1,4,-1
 148 278 l 1,5,-1
 43 278 l 1,6,-1
 217 712 l 1,0,-1
EndSplineSet
Validated: 1
EndChar

StartChar: underscore
Encoding: 95 95 67
Width: 576
GlyphClass: 2
Flags: W
LayerCount: 2
Fore
SplineSet
0 -41 m 1,0,-1
 577 -41 l 1,1,-1
 577 -124 l 1,2,-1
 0 -124 l 1,3,-1
 0 -41 l 1,0,-1
EndSplineSet
Validated: 1
EndChar

StartChar: grave
Encoding: 96 96 68
Width: 512
GlyphClass: 2
Flags: W
LayerCount: 2
Fore
SplineSet
48 738 m 1,0,-1
 213 738 l 1,1,-1
 348 602 l 1,2,-1
 228 602 l 1,3,-1
 48 738 l 1,0,-1
EndSplineSet
Validated: 1
EndChar

StartChar: a
Encoding: 97 97 69
Width: 566
GlyphClass: 2
Flags: W
LayerCount: 2
Fore
SplineSet
450 487.5 m 128,-1,1
 511 436 511 436 511 340 c 2,2,-1
 511 0 l 1,3,-1
 388 0 l 1,4,-1
 388 49 l 1,5,6
 356 19 356 19 320.5 6.5 c 128,-1,7
 285 -6 285 -6 233 -6 c 0,8,9
 137 -6 137 -6 87.5 37 c 128,-1,10
 38 80 38 80 38 159 c 0,11,12
 38 235 38 235 90.5 274.5 c 128,-1,13
 143 314 143 314 243 314 c 2,14,-1
 385 314 l 1,15,-1
 385 346 l 2,16,17
 385 441 385 441 272 441 c 0,18,19
 221 441 221 441 198 422.5 c 128,-1,20
 175 404 175 404 175 376 c 2,21,-1
 175 373 l 1,22,-1
 54 373 l 1,23,-1
 54 376 l 2,24,25
 54 452 54 452 114 495.5 c 128,-1,26
 174 539 174 539 275 539 c 0,27,0
 389 539 389 539 450 487.5 c 128,-1,1
385 195 m 2,29,-1
 385 227 l 1,30,-1
 266 227 l 2,31,32
 212 227 212 227 186.5 211.5 c 128,-1,33
 161 196 161 196 161 162 c 0,34,35
 161 130 161 130 186 112.5 c 128,-1,36
 211 95 211 95 261 95 c 0,37,28
 385 96 385 96 385 195 c 2,29,-1
EndSplineSet
Validated: 1
EndChar

StartChar: b
Encoding: 98 98 70
Width: 584
GlyphClass: 2
Flags: W
LayerCount: 2
Fore
SplineSet
179 54 m 1,1,-1
 179 0 l 1,2,-1
 55 0 l 1,3,-1
 55 707 l 1,4,-1
 182 707 l 1,5,-1
 182 472 l 1,6,7
 208 505 208 505 246 523.5 c 128,-1,8
 284 542 284 542 331 542 c 0,9,10
 426 542 426 542 482.5 480.5 c 128,-1,11
 539 419 539 419 539 303 c 2,12,-1
 539 237 l 2,13,14
 539 160 539 160 511.5 104 c 128,-1,15
 484 48 484 48 437 19.5 c 128,-1,16
 390 -9 390 -9 330 -9 c 0,17,0
 234 -9 234 -9 179 54 c 1,1,-1
383 138.5 m 128,-1,19
 412 173 412 173 412 242 c 2,20,-1
 412 297 l 2,21,22
 412 429 412 429 298 429 c 0,23,24
 244 429 244 429 213 394.5 c 128,-1,25
 182 360 182 360 182 299 c 2,26,-1
 182 231 l 2,27,28
 182 173 182 173 214 138.5 c 128,-1,29
 246 104 246 104 300 104 c 256,30,18
 354 104 354 104 383 138.5 c 128,-1,19
EndSplineSet
Validated: 1
EndChar

StartChar: c
Encoding: 99 99 71
Width: 572
GlyphClass: 2
Flags: W
LayerCount: 2
Fore
SplineSet
111.5 53.5 m 128,-1,1
 47 116 47 116 47 236 c 2,2,-1
 47 299 l 2,3,4
 47 418 47 418 111.5 480 c 128,-1,5
 176 542 176 542 290 542 c 0,6,7
 402 542 402 542 464 489.5 c 128,-1,8
 526 437 526 437 526 345 c 2,9,-1
 526 339 l 1,10,-1
 402 339 l 1,11,-1
 402 343 l 2,12,13
 402 383 402 383 373 406 c 128,-1,14
 344 429 344 429 293 429 c 0,15,16
 234 429 234 429 203.5 397.5 c 128,-1,17
 173 366 173 366 173 297 c 2,18,-1
 173 237 l 2,19,20
 173 167 173 167 203.5 135.5 c 128,-1,21
 234 104 234 104 296 104 c 0,22,23
 345 104 345 104 373 126 c 128,-1,24
 401 148 401 148 401 186 c 2,25,-1
 401 190 l 1,26,-1
 525 190 l 1,27,-1
 525 186 l 2,28,29
 525 95 525 95 462.5 43 c 128,-1,30
 400 -9 400 -9 290 -9 c 0,31,0
 176 -9 176 -9 111.5 53.5 c 128,-1,1
EndSplineSet
Validated: 1
EndChar

StartChar: d
Encoding: 100 100 72
Width: 584
GlyphClass: 2
Flags: W
LayerCount: 2
Fore
SplineSet
104 53.5 m 128,-1,1
 47 116 47 116 47 233 c 2,2,-1
 47 300 l 2,3,4
 47 377 47 377 73 431 c 128,-1,5
 99 485 99 485 146 513.5 c 128,-1,6
 193 542 193 542 253 542 c 0,7,8
 347 542 347 542 403 475 c 1,9,-1
 403 707 l 1,10,-1
 529 707 l 1,11,-1
 529 0 l 1,12,-1
 406 0 l 1,13,-1
 406 57 l 1,14,15
 354 -10 354 -10 255 -9 c 0,16,0
 161 -9 161 -9 104 53.5 c 128,-1,1
371 138 m 128,-1,18
 403 172 403 172 403 231 c 2,19,-1
 403 299 l 2,20,21
 403 360 403 360 372.5 394.5 c 128,-1,22
 342 429 342 429 287 429 c 0,23,24
 233 429 233 429 203.5 395.5 c 128,-1,25
 174 362 174 362 174 294 c 2,26,-1
 174 239 l 2,27,28
 174 171 174 171 202.5 137.5 c 128,-1,29
 231 104 231 104 284 104 c 0,30,17
 339 104 339 104 371 138 c 128,-1,18
EndSplineSet
Validated: 33
EndChar

StartChar: e
Encoding: 101 101 73
Width: 584
GlyphClass: 2
Flags: W
LayerCount: 2
Fore
SplineSet
173 231 m 1,0,-1
 173 229 l 2,1,2
 173 101 173 101 304 101 c 0,3,4
 348 101 348 101 376 117.5 c 128,-1,5
 404 134 404 134 409 164 c 1,6,-1
 410 167 l 1,7,-1
 534 167 l 1,8,-1
 534 161 l 1,9,10
 529 84 529 84 465.5 37.5 c 128,-1,11
 402 -9 402 -9 299 -9 c 0,12,13
 181 -9 181 -9 114 55.5 c 128,-1,14
 47 120 47 120 47 244 c 2,15,-1
 47 290 l 2,16,17
 47 412 47 412 112.5 477 c 128,-1,18
 178 542 178 542 293 542 c 256,19,20
 408 542 408 542 473.5 477.5 c 128,-1,21
 539 413 539 413 539 293 c 2,22,-1
 539 231 l 1,23,-1
 173 231 l 1,0,-1
173 318 m 1,25,-1
 412 318 l 1,26,-1
 412 326 l 2,27,28
 412 379 412 379 379.5 406 c 128,-1,29
 347 433 347 433 293 433 c 0,30,24
 180 433 180 433 173 318 c 1,25,-1
EndSplineSet
Validated: 1
EndChar

StartChar: f
Encoding: 102 102 74
Width: 376
GlyphClass: 2
Flags: W
LayerCount: 2
Fore
SplineSet
249.5 606.5 m 128,-1,1
 234 592 234 592 234 559 c 2,2,-1
 234 532 l 1,3,-1
 349 532 l 1,4,-1
 349 443 l 1,5,-1
 234 443 l 1,6,-1
 234 0 l 1,7,-1
 109 0 l 1,8,-1
 109 443 l 1,9,-1
 37 443 l 1,10,-1
 37 532 l 1,11,-1
 109 532 l 1,12,-1
 109 554 l 2,13,14
 109 630 109 630 148.5 668.5 c 128,-1,15
 188 707 188 707 266 707 c 2,16,-1
 349 707 l 1,17,-1
 349 621 l 1,18,-1
 302 621 l 2,19,0
 265 621 265 621 249.5 606.5 c 128,-1,1
EndSplineSet
Validated: 1
EndChar

StartChar: g
Encoding: 103 103 75
Width: 584
GlyphClass: 2
Flags: W
LayerCount: 2
Fore
SplineSet
120.5 -128 m 128,-1,1
 62 -88 62 -88 59 -11 c 1,2,-1
 181 -11 l 1,3,4
 188 -38 188 -38 214.5 -53 c 128,-1,5
 241 -68 241 -68 286 -68 c 0,6,7
 405 -68 405 -68 404 41 c 2,8,-1
 404 96 l 1,9,10
 353 29 353 29 255 30 c 0,11,12
 161 30 161 30 104 91.5 c 128,-1,13
 47 153 47 153 47 267 c 2,14,-1
 47 308 l 2,15,16
 47 419 47 419 104 480.5 c 128,-1,17
 161 542 161 542 253 542 c 0,18,19
 346 542 346 542 404 475 c 1,20,-1
 404 532 l 1,21,-1
 529 532 l 1,22,-1
 529 49 l 2,23,24
 529 -52 529 -52 463 -110 c 128,-1,25
 397 -168 397 -168 280 -168 c 0,26,0
 179 -168 179 -168 120.5 -128 c 128,-1,1
371 176 m 128,-1,28
 403 209 403 209 403 265 c 2,29,-1
 403 307 l 2,30,31
 403 363 403 363 371.5 396 c 128,-1,32
 340 429 340 429 286 429 c 0,33,34
 233 429 233 429 203.5 398 c 128,-1,35
 174 367 174 367 174 302 c 2,36,-1
 174 272 l 2,37,38
 174 207 174 207 202 175 c 128,-1,39
 230 143 230 143 284 143 c 0,40,27
 339 143 339 143 371 176 c 128,-1,28
EndSplineSet
Validated: 33
EndChar

StartChar: h
Encoding: 104 104 76
Width: 585
GlyphClass: 2
Flags: W
LayerCount: 2
Fore
SplineSet
55 707 m 1,0,-1
 182 707 l 1,1,-1
 182 476 l 1,2,3
 210 507 210 507 250 523 c 128,-1,4
 290 539 290 539 336 539 c 0,5,6
 428 539 428 539 479 484.5 c 128,-1,7
 530 430 530 430 530 332 c 2,8,-1
 530 0 l 1,9,-1
 403 0 l 1,10,-1
 403 306 l 2,11,12
 403 426 403 426 298 426 c 0,13,14
 244 426 244 426 213 395 c 128,-1,15
 182 364 182 364 182 301 c 2,16,-1
 182 0 l 1,17,-1
 55 0 l 1,18,-1
 55 707 l 1,0,-1
EndSplineSet
Validated: 1
EndChar

StartChar: i
Encoding: 105 105 77
Width: 246
GlyphClass: 2
Flags: W
LayerCount: 2
Fore
SplineSet
60 710 m 1,0,-1
 186 710 l 1,1,-1
 186 608 l 1,2,-1
 60 608 l 1,3,-1
 60 710 l 1,0,-1
60 532 m 1,4,-1
 186 532 l 1,5,-1
 186 0 l 1,6,-1
 60 0 l 1,7,-1
 60 532 l 1,4,-1
EndSplineSet
Validated: 1
EndChar

StartChar: j
Encoding: 106 106 78
Width: 246
GlyphClass: 2
Flags: W
LayerCount: 2
Fore
SplineSet
60 710 m 1,0,-1
 186 710 l 1,1,-1
 186 608 l 1,2,-1
 60 608 l 1,3,-1
 60 710 l 1,0,-1
-61 -50 m 1,4,-1
 -13 -50 l 2,5,6
 29 -50 29 -50 44.5 -34.5 c 128,-1,7
 60 -19 60 -19 60 20 c 2,8,-1
 60 532 l 1,9,-1
 186 532 l 1,10,-1
 186 12 l 2,11,12
 186 -76 186 -76 142 -118 c 128,-1,13
 98 -160 98 -160 5 -160 c 2,14,-1
 -61 -160 l 1,15,-1
 -61 -50 l 1,4,-1
EndSplineSet
Validated: 1
EndChar

StartChar: k
Encoding: 107 107 79
Width: 590
GlyphClass: 2
Flags: W
LayerCount: 2
Fore
SplineSet
258 239 m 1,0,-1
 182 165 l 1,1,-1
 182 0 l 1,2,-1
 55 0 l 1,3,-1
 55 707 l 1,4,-1
 182 707 l 1,5,-1
 182 307 l 1,6,-1
 398 532 l 1,7,-1
 561 532 l 1,8,-1
 347 325 l 1,9,-1
 577 0 l 1,10,-1
 416 0 l 1,11,-1
 258 239 l 1,0,-1
EndSplineSet
Validated: 1
EndChar

StartChar: l
Encoding: 108 108 80
Width: 321
GlyphClass: 2
Flags: W
LayerCount: 2
Fore
SplineSet
98.5 42.5 m 128,-1,1
 55 85 55 85 55 172 c 2,2,-1
 55 707 l 1,3,-1
 182 707 l 1,4,-1
 182 180 l 2,5,6
 182 141 182 141 198 125.5 c 128,-1,7
 214 110 214 110 255 110 c 2,8,-1
 303 110 l 1,9,-1
 303 0 l 1,10,-1
 232 0 l 2,11,0
 142 0 142 0 98.5 42.5 c 128,-1,1
EndSplineSet
Validated: 1
EndChar

StartChar: m
Encoding: 109 109 81
Width: 917
GlyphClass: 2
Flags: W
LayerCount: 2
Fore
SplineSet
55 532 m 1,0,-1
 179 532 l 1,1,-1
 179 475 l 1,2,3
 207 506 207 506 247 522.5 c 128,-1,4
 287 539 287 539 330 539 c 0,5,6
 378 539 378 539 418 521 c 128,-1,7
 458 503 458 503 484 467 c 1,8,9
 552 539 552 539 655 539 c 0,10,11
 753 539 753 539 807.5 484 c 128,-1,12
 862 429 862 429 862 332 c 2,13,-1
 862 0 l 1,14,-1
 735 0 l 1,15,-1
 735 306 l 2,16,17
 735 365 735 365 709 395.5 c 128,-1,18
 683 426 683 426 633 426 c 0,19,20
 581 426 581 426 551.5 393.5 c 128,-1,21
 522 361 522 361 522 303 c 2,22,-1
 522 0 l 1,23,-1
 395 0 l 1,24,-1
 395 311 l 2,25,26
 395 368 395 368 369 397 c 128,-1,27
 343 426 343 426 294 426 c 0,28,29
 241 426 241 426 211.5 393.5 c 128,-1,30
 182 361 182 361 182 301 c 2,31,-1
 182 0 l 1,32,-1
 55 0 l 1,33,-1
 55 532 l 1,0,-1
EndSplineSet
Validated: 1
EndChar

StartChar: n
Encoding: 110 110 82
Width: 585
GlyphClass: 2
Flags: W
LayerCount: 2
Fore
SplineSet
55 532 m 1,0,-1
 179 532 l 1,1,-1
 179 475 l 1,2,3
 208 506 208 506 248.5 522.5 c 128,-1,4
 289 539 289 539 336 539 c 0,5,6
 428 539 428 539 479 484 c 128,-1,7
 530 429 530 429 530 332 c 2,8,-1
 530 0 l 1,9,-1
 403 0 l 1,10,-1
 403 306 l 2,11,12
 403 426 403 426 298 426 c 0,13,14
 244 426 244 426 213 395 c 128,-1,15
 182 364 182 364 182 301 c 2,16,-1
 182 0 l 1,17,-1
 55 0 l 1,18,-1
 55 532 l 1,0,-1
EndSplineSet
Validated: 1
EndChar

StartChar: o
Encoding: 111 111 83
Width: 576
GlyphClass: 2
Flags: W
LayerCount: 2
Fore
SplineSet
111.5 53.5 m 128,-1,1
 47 116 47 116 47 236 c 2,2,-1
 47 299 l 2,3,4
 47 418 47 418 111.5 480 c 128,-1,5
 176 542 176 542 290 542 c 0,6,7
 403 542 403 542 466.5 479.5 c 128,-1,8
 530 417 530 417 530 299 c 2,9,-1
 530 236 l 2,10,11
 530 116 530 116 466 53.5 c 128,-1,12
 402 -9 402 -9 290 -9 c 0,13,0
 176 -9 176 -9 111.5 53.5 c 128,-1,1
404 237 m 2,15,-1
 404 297 l 2,16,17
 404 365 404 365 374.5 397 c 128,-1,18
 345 429 345 429 290 429 c 0,19,20
 173 429 173 429 173 297 c 2,21,-1
 173 237 l 2,22,23
 173 105 173 105 290 104 c 0,24,14
 404 105 404 105 404 237 c 2,15,-1
EndSplineSet
Validated: 1
EndChar

StartChar: p
Encoding: 112 112 84
Width: 584
GlyphClass: 2
Flags: W
LayerCount: 2
Fore
SplineSet
55 532 m 1,0,-1
 179 532 l 1,1,-1
 179 472 l 1,2,3
 238 542 238 542 331 542 c 0,4,5
 426 542 426 542 482.5 480.5 c 128,-1,6
 539 419 539 419 539 303 c 2,7,-1
 539 237 l 2,8,9
 539 160 539 160 511.5 104 c 128,-1,10
 484 48 484 48 437 19.5 c 128,-1,11
 390 -9 390 -9 330 -9 c 0,12,13
 235 -9 235 -9 182 54 c 1,14,-1
 182 -160 l 1,15,-1
 55 -160 l 1,16,-1
 55 532 l 1,0,-1
383 138.5 m 128,-1,18
 412 173 412 173 412 242 c 2,19,-1
 412 297 l 2,20,21
 412 429 412 429 298 429 c 0,22,23
 244 429 244 429 213 394.5 c 128,-1,24
 182 360 182 360 182 299 c 2,25,-1
 182 231 l 2,26,27
 182 173 182 173 214 138.5 c 128,-1,28
 246 104 246 104 300 104 c 256,29,17
 354 104 354 104 383 138.5 c 128,-1,18
EndSplineSet
Validated: 1
EndChar

StartChar: q
Encoding: 113 113 85
Width: 584
GlyphClass: 2
Flags: W
LayerCount: 2
Fore
SplineSet
403 57 m 1,0,1
 352 -10 352 -10 255 -9 c 0,2,3
 161 -9 161 -9 104 53.5 c 128,-1,4
 47 116 47 116 47 233 c 2,5,-1
 47 300 l 2,6,7
 47 415 47 415 104.5 478.5 c 128,-1,8
 162 542 162 542 255 542 c 0,9,10
 346 542 346 542 406 475 c 1,11,-1
 406 532 l 1,12,-1
 529 532 l 1,13,-1
 529 -160 l 1,14,-1
 403 -160 l 1,15,-1
 403 57 l 1,0,1
371 138 m 128,-1,17
 403 172 403 172 403 231 c 2,18,-1
 403 299 l 2,19,20
 403 360 403 360 372.5 394.5 c 128,-1,21
 342 429 342 429 287 429 c 0,22,23
 233 429 233 429 203.5 395.5 c 128,-1,24
 174 362 174 362 174 294 c 2,25,-1
 174 239 l 2,26,27
 174 171 174 171 202.5 137.5 c 128,-1,28
 231 104 231 104 284 104 c 0,29,16
 339 104 339 104 371 138 c 128,-1,17
EndSplineSet
Validated: 33
EndChar

StartChar: r
Encoding: 114 114 86
Width: 403
GlyphClass: 2
Flags: W
LayerCount: 2
Fore
SplineSet
55 532 m 1,0,-1
 179 532 l 1,1,-1
 179 472 l 1,2,3
 206 508 206 508 246.5 526 c 128,-1,4
 287 544 287 544 335 544 c 0,5,6
 365 544 365 544 385 540 c 1,7,-1
 385 419 l 1,8,9
 350 432 350 432 309 432 c 0,10,11
 249 432 249 432 215.5 396.5 c 128,-1,12
 182 361 182 361 182 295 c 2,13,-1
 182 0 l 1,14,-1
 55 0 l 1,15,-1
 55 532 l 1,0,-1
EndSplineSet
Validated: 1
EndChar

StartChar: s
Encoding: 115 115 87
Width: 538
GlyphClass: 2
Flags: W
LayerCount: 2
Fore
SplineSet
98.5 38.5 m 128,-1,1
 38 83 38 83 38 164 c 2,2,-1
 38 167 l 1,3,-1
 157 167 l 1,4,-1
 157 165 l 2,5,6
 157 133 157 133 186.5 114.5 c 128,-1,7
 216 96 216 96 274 96 c 0,8,9
 328 96 328 96 356.5 111.5 c 128,-1,10
 385 127 385 127 385 157 c 0,11,12
 385 182 385 182 365 195 c 128,-1,13
 345 208 345 208 300 213 c 2,14,-1
 221 222 l 2,15,16
 131 233 131 233 88.5 269.5 c 128,-1,17
 46 306 46 306 46 374 c 0,18,19
 46 453 46 453 105.5 496 c 128,-1,20
 165 539 165 539 268 539 c 0,21,22
 374 539 374 539 435 496 c 128,-1,23
 496 453 496 453 496 377 c 2,24,-1
 496 373 l 1,25,-1
 378 373 l 1,26,-1
 378 376 l 2,27,28
 378 407 378 407 350.5 423 c 128,-1,29
 323 439 323 439 267 439 c 0,30,31
 215 439 215 439 190 424.5 c 128,-1,32
 165 410 165 410 165 382 c 0,33,34
 165 359 165 359 182.5 346 c 128,-1,35
 200 333 200 333 241 329 c 2,36,-1
 326 318 l 2,37,38
 418 308 418 308 462 269.5 c 128,-1,39
 506 231 506 231 506 165 c 0,40,41
 506 82 506 82 442 38 c 128,-1,42
 378 -6 378 -6 267 -6 c 0,43,0
 159 -6 159 -6 98.5 38.5 c 128,-1,1
EndSplineSet
Validated: 1
EndChar

StartChar: t
Encoding: 116 116 88
Width: 404
GlyphClass: 2
Flags: W
LayerCount: 2
Fore
SplineSet
245 443 m 1,0,-1
 245 172 l 2,1,2
 245 137 245 137 259.5 122.5 c 128,-1,3
 274 108 274 108 309 108 c 2,4,-1
 354 108 l 1,5,-1
 354 0 l 1,6,-1
 286 0 l 2,7,8
 205 0 205 0 162 42.5 c 128,-1,9
 119 85 119 85 119 164 c 2,10,-1
 119 443 l 1,11,-1
 26 443 l 1,12,-1
 26 532 l 1,13,-1
 119 532 l 1,14,-1
 119 637 l 1,15,-1
 245 681 l 1,16,-1
 245 532 l 1,17,-1
 366 532 l 1,18,-1
 366 443 l 1,19,-1
 245 443 l 1,0,-1
EndSplineSet
Validated: 1
EndChar

StartChar: u
Encoding: 117 117 89
Width: 585
GlyphClass: 2
Flags: W
LayerCount: 2
Fore
SplineSet
115 50 m 128,-1,1
 55 109 55 109 55 223 c 2,2,-1
 55 532 l 1,3,-1
 182 532 l 1,4,-1
 182 229 l 2,5,6
 182 168 182 168 208 136 c 128,-1,7
 234 104 234 104 293 104 c 256,8,9
 352 104 352 104 377.5 135.5 c 128,-1,10
 403 167 403 167 403 229 c 2,11,-1
 403 532 l 1,12,-1
 530 532 l 1,13,-1
 530 223 l 2,14,15
 530 107 530 107 470.5 49 c 128,-1,16
 411 -9 411 -9 293 -9 c 256,17,0
 175 -9 175 -9 115 50 c 128,-1,1
EndSplineSet
Validated: 1
EndChar

StartChar: v
Encoding: 118 118 90
Width: 551
GlyphClass: 2
Flags: W
LayerCount: 2
Fore
SplineSet
9 532 m 1,0,-1
 146 532 l 1,1,-1
 276 171 l 1,2,-1
 406 532 l 1,3,-1
 543 532 l 1,4,-1
 328 0 l 1,5,-1
 223 0 l 1,6,-1
 9 532 l 1,0,-1
EndSplineSet
Validated: 1
EndChar

StartChar: w
Encoding: 119 119 91
Width: 845
GlyphClass: 2
Flags: W
LayerCount: 2
Fore
SplineSet
9 532 m 1,0,-1
 143 532 l 1,1,-1
 251 176 l 1,2,-1
 375 532 l 1,3,-1
 470 532 l 1,4,-1
 596 176 l 1,5,-1
 701 532 l 1,6,-1
 837 532 l 1,7,-1
 653 0 l 1,8,-1
 546 0 l 1,9,-1
 423 360 l 1,10,-1
 299 0 l 1,11,-1
 191 0 l 1,12,-1
 9 532 l 1,0,-1
EndSplineSet
Validated: 1
EndChar

StartChar: x
Encoding: 120 120 92
Width: 526
GlyphClass: 2
Flags: W
LayerCount: 2
Fore
SplineSet
379 0 m 1,0,-1
 259 178 l 1,1,-1
 148 0 l 1,2,-1
 9 0 l 1,3,-1
 194 274 l 1,4,-1
 19 532 l 1,5,-1
 159 532 l 1,6,-1
 267 371 l 1,7,-1
 369 532 l 1,8,-1
 507 532 l 1,9,-1
 330 278 l 1,10,-1
 517 0 l 1,11,-1
 379 0 l 1,0,-1
EndSplineSet
Validated: 1
EndChar

StartChar: y
Encoding: 121 121 93
Width: 552
GlyphClass: 2
Flags: W
LayerCount: 2
Fore
SplineSet
544 532 m 1,0,-1
 317 -46 l 2,1,2
 294 -104 294 -104 250.5 -131 c 128,-1,3
 207 -158 207 -158 136 -158 c 2,4,-1
 87 -158 l 1,5,-1
 87 -44 l 1,6,-1
 142 -44 l 2,7,8
 179 -44 179 -44 196 -34.5 c 128,-1,9
 213 -25 213 -25 223 2 c 2,10,-1
 226 11 l 1,11,-1
 9 532 l 1,12,-1
 146 532 l 1,13,-1
 285 176 l 1,14,-1
 412 532 l 1,15,-1
 544 532 l 1,0,-1
EndSplineSet
Validated: 1
EndChar

StartChar: z
Encoding: 122 122 94
Width: 513
GlyphClass: 2
Flags: W
LayerCount: 2
Fore
SplineSet
467 426 m 1,0,-1
 193 106 l 1,1,-1
 467 106 l 1,2,-1
 467 0 l 1,3,-1
 47 0 l 1,4,-1
 47 106 l 1,5,-1
 321 426 l 1,6,-1
 47 426 l 1,7,-1
 47 532 l 1,8,-1
 467 532 l 1,9,-1
 467 426 l 1,0,-1
EndSplineSet
Validated: 1
EndChar

StartChar: braceleft
Encoding: 123 123 95
Width: 409
GlyphClass: 2
Flags: W
LayerCount: 2
Fore
SplineSet
139 45 m 2,1,-1
 139 202 l 2,2,3
 139 246 139 246 118.5 265 c 128,-1,4
 98 284 98 284 47 284 c 1,5,-1
 47 392 l 1,6,7
 98 392 98 392 118.5 411 c 128,-1,8
 139 430 139 430 139 474 c 2,9,-1
 139 628 l 2,10,11
 139 758 139 758 283 758 c 2,12,-1
 364 758 l 1,13,-1
 364 655 l 1,14,-1
 323 655 l 2,15,16
 288 655 288 655 273.5 644 c 128,-1,17
 259 633 259 633 259 605 c 2,18,-1
 259 468 l 2,19,20
 259 411 259 411 242.5 381.5 c 128,-1,21
 226 352 226 352 187 338 c 1,22,23
 226 324 226 324 242.5 294.5 c 128,-1,24
 259 265 259 265 259 208 c 2,25,-1
 259 67 l 2,26,27
 259 39 259 39 273.5 27.5 c 128,-1,28
 288 16 288 16 323 16 c 2,29,-1
 364 16 l 1,30,-1
 364 -86 l 1,31,-1
 283 -86 l 2,32,0
 139 -86 139 -86 139 45 c 2,1,-1
EndSplineSet
Validated: 1
Substitution2: "'rtla' Right to Left Alternates lookup 0 subtable" braceright
EndChar

StartChar: bar
Encoding: 124 124 96
Width: 303
GlyphClass: 2
Flags: W
LayerCount: 2
Fore
SplineSet
93 758 m 1,0,-1
 211 758 l 1,1,-1
 211 -86 l 1,2,-1
 93 -86 l 1,3,-1
 93 758 l 1,0,-1
EndSplineSet
Validated: 1
EndChar

StartChar: braceright
Encoding: 125 125 97
Width: 409
GlyphClass: 2
Flags: W
LayerCount: 2
Fore
SplineSet
47 16 m 1,0,-1
 87 16 l 2,1,2
 122 16 122 16 137 28 c 128,-1,3
 152 40 152 40 152 67 c 2,4,-1
 152 208 l 2,5,6
 152 265 152 265 168 294.5 c 128,-1,7
 184 324 184 324 223 338 c 1,8,9
 184 352 184 352 168 381.5 c 128,-1,10
 152 411 152 411 152 468 c 2,11,-1
 152 605 l 2,12,13
 152 633 152 633 137.5 644 c 128,-1,14
 123 655 123 655 87 655 c 2,15,-1
 47 655 l 1,16,-1
 47 758 l 1,17,-1
 128 758 l 2,18,19
 270 758 270 758 270 628 c 2,20,-1
 270 474 l 2,21,22
 270 431 270 431 290.5 411.5 c 128,-1,23
 311 392 311 392 364 392 c 1,24,-1
 364 284 l 1,25,26
 312 284 312 284 291 264.5 c 128,-1,27
 270 245 270 245 270 202 c 2,28,-1
 270 45 l 2,29,30
 270 -86 270 -86 128 -86 c 2,31,-1
 47 -86 l 1,32,-1
 47 16 l 1,0,-1
EndSplineSet
Validated: 1
Substitution2: "'rtla' Right to Left Alternates lookup 0 subtable" braceleft
EndChar

StartChar: asciitilde
Encoding: 126 126 98
Width: 541
GlyphClass: 2
Flags: W
LayerCount: 2
Fore
SplineSet
40 251 m 1,0,1
 65 305 65 305 102.5 333.5 c 128,-1,2
 140 362 140 362 186 362 c 0,3,4
 213 362 213 362 234.5 354 c 128,-1,5
 256 346 256 346 285 330 c 0,6,7
 308 318 308 318 322 311.5 c 128,-1,8
 336 305 336 305 351 305 c 0,9,10
 374 305 374 305 390 318.5 c 128,-1,11
 406 332 406 332 421 362 c 1,12,-1
 503 312 l 1,13,14
 479 258 479 258 440.5 229 c 128,-1,15
 402 200 402 200 355 200 c 0,16,17
 328 200 328 200 306.5 208.5 c 128,-1,18
 285 217 285 217 257 233 c 0,19,20
 232 246 232 246 219 252 c 128,-1,21
 206 258 206 258 191 258 c 0,22,23
 169 258 169 258 153.5 244.5 c 128,-1,24
 138 231 138 231 122 201 c 1,25,-1
 40 251 l 1,0,1
EndSplineSet
Validated: 1
EndChar

StartChar: exclamdown
Encoding: 161 161 100
Width: 254
GlyphClass: 2
Flags: W
LayerCount: 2
Fore
SplineSet
59 532 m 1,0,-1
 196 532 l 1,1,-1
 196 398 l 1,2,-1
 59 398 l 1,3,-1
 59 532 l 1,0,-1
80 297 m 1,4,-1
 175 297 l 1,5,-1
 200 -160 l 1,6,-1
 55 -160 l 1,7,-1
 80 297 l 1,4,-1
EndSplineSet
Validated: 1
EndChar

StartChar: cent
Encoding: 162 162 101
Width: 572
GlyphClass: 2
Flags: W
LayerCount: 2
Fore
SplineSet
402 339 m 1,0,-1
 402 343 l 2,1,2
 402 383 402 383 373 406 c 128,-1,3
 344 429 344 429 293 429 c 0,4,5
 234 429 234 429 203.5 397.5 c 128,-1,6
 173 366 173 366 173 297 c 2,7,-1
 173 237 l 2,8,9
 173 167 173 167 203.5 135.5 c 128,-1,10
 234 104 234 104 296 104 c 0,11,12
 345 104 345 104 373 126 c 128,-1,13
 401 148 401 148 401 186 c 2,14,-1
 401 190 l 1,15,-1
 525 190 l 1,16,-1
 525 186 l 2,17,18
 525 103 525 103 473.5 52.5 c 128,-1,19
 422 2 422 2 330 -7 c 1,20,-1
 330 -102 l 1,21,-1
 256 -102 l 1,22,-1
 256 -8 l 1,23,24
 157 1 157 1 102 63 c 128,-1,25
 47 125 47 125 47 236 c 2,26,-1
 47 299 l 2,27,28
 47 409 47 409 102.5 470 c 128,-1,29
 158 531 158 531 256 541 c 1,30,-1
 256 633 l 1,31,-1
 330 633 l 1,32,-1
 330 540 l 1,33,34
 423 531 423 531 474.5 480 c 128,-1,35
 526 429 526 429 526 345 c 2,36,-1
 526 339 l 1,37,-1
 402 339 l 1,0,-1
EndSplineSet
Validated: 1
EndChar

StartChar: sterling
Encoding: 163 163 102
Width: 530
GlyphClass: 2
Flags: W
LayerCount: 2
Fore
SplineSet
225.5 159 m 128,-1,1
 217 134 217 134 199 116 c 1,2,-1
 508 116 l 1,3,-1
 508 0 l 1,4,-1
 49 0 l 1,5,-1
 49 111 l 1,6,7
 77 122 77 122 88.5 143.5 c 128,-1,8
 100 165 100 165 100 206 c 2,9,-1
 100 283 l 1,10,-1
 29 283 l 1,11,-1
 29 399 l 1,12,-1
 100 399 l 1,13,-1
 100 514 l 2,14,15
 100 610 100 610 154.5 663.5 c 128,-1,16
 209 717 209 717 308 717 c 0,17,18
 401 717 401 717 454.5 671 c 128,-1,19
 508 625 508 625 508 542 c 1,20,-1
 383 542 l 1,21,22
 383 572 383 572 364.5 587.5 c 128,-1,23
 346 603 346 603 310 603 c 0,24,25
 273 603 273 603 253.5 584 c 128,-1,26
 234 565 234 565 234 529 c 2,27,-1
 234 399 l 1,28,-1
 400 399 l 1,29,-1
 400 283 l 1,30,-1
 234 283 l 1,31,-1
 234 219 l 2,32,0
 234 184 234 184 225.5 159 c 128,-1,1
EndSplineSet
Validated: 1
EndChar

StartChar: currency
Encoding: 164 164 103
Width: 609
GlyphClass: 2
Flags: W
LayerCount: 2
Fore
SplineSet
412 143 m 1,0,1
 364 114 364 114 304 115 c 256,2,3
 245 115 245 115 197 143 c 1,4,-1
 130 77 l 1,5,-1
 55 152 l 1,6,-1
 123 219 l 1,7,8
 96 264 96 264 96 324 c 0,9,10
 96 379 96 379 124 428 c 1,11,-1
 55 497 l 1,12,-1
 130 571 l 1,13,-1
 198 504 l 1,14,15
 247 532 247 532 304 531 c 256,16,17
 361 531 361 531 411 504 c 1,18,-1
 479 571 l 1,19,-1
 553 497 l 1,20,-1
 485 428 l 1,21,22
 513 379 513 379 513 324 c 0,23,24
 513 266 513 266 486 218 c 1,25,-1
 554 151 l 1,26,-1
 479 76 l 1,27,-1
 412 143 l 1,0,1
380 246.5 m 128,-1,29
 410 278 410 278 410 324 c 256,30,31
 410 370 410 370 380 400.5 c 128,-1,32
 350 431 350 431 304 431 c 0,33,34
 259 431 259 431 229.5 400.5 c 128,-1,35
 200 370 200 370 200 324 c 256,36,37
 200 278 200 278 229.5 246.5 c 128,-1,38
 259 215 259 215 304 215 c 0,39,28
 350 215 350 215 380 246.5 c 128,-1,29
EndSplineSet
Validated: 33
EndChar

StartChar: yen
Encoding: 165 165 104
Width: 571
GlyphClass: 2
Flags: W
LayerCount: 2
Fore
SplineSet
219 120 m 1,0,-1
 61 120 l 1,1,-1
 61 210 l 1,2,-1
 219 210 l 1,3,-1
 219 266 l 1,4,-1
 61 266 l 1,5,-1
 61 356 l 1,6,-1
 197 356 l 1,7,-1
 7 707 l 1,8,-1
 153 707 l 1,9,-1
 289 423 l 1,10,-1
 419 707 l 1,11,-1
 564 707 l 1,12,-1
 375 356 l 1,13,-1
 510 356 l 1,14,-1
 510 266 l 1,15,-1
 352 266 l 1,16,-1
 352 210 l 1,17,-1
 510 210 l 1,18,-1
 510 120 l 1,19,-1
 352 120 l 1,20,-1
 352 0 l 1,21,-1
 219 0 l 1,22,-1
 219 120 l 1,0,-1
EndSplineSet
Validated: 1
EndChar

StartChar: brokenbar
Encoding: 166 166 105
Width: 303
GlyphClass: 2
Flags: W
LayerCount: 2
Fore
SplineSet
93 758 m 1,0,-1
 211 758 l 1,1,-1
 211 397 l 1,2,-1
 93 397 l 1,3,-1
 93 758 l 1,0,-1
93 276 m 1,4,-1
 211 276 l 1,5,-1
 211 -86 l 1,6,-1
 93 -86 l 1,7,-1
 93 276 l 1,4,-1
EndSplineSet
Validated: 1
EndChar

StartChar: section
Encoding: 167 167 106
Width: 573
GlyphClass: 2
Flags: W
LayerCount: 2
Fore
SplineSet
130.5 -126 m 128,-1,1
 77 -80 77 -80 77 4 c 1,2,-1
 193 4 l 1,3,4
 193 -31 193 -31 216 -49.5 c 128,-1,5
 239 -68 239 -68 284 -68 c 0,6,7
 325 -68 325 -68 347 -51.5 c 128,-1,8
 369 -35 369 -35 369 -5 c 0,9,10
 369 32 369 32 337 51.5 c 128,-1,11
 305 71 305 71 230 88 c 0,12,13
 60 131 60 131 60 280 c 0,14,15
 60 336 60 336 86.5 376.5 c 128,-1,16
 113 417 113 417 161 439 c 1,17,18
 86 479 86 479 86 568 c 0,19,20
 86 616 86 616 111.5 653.5 c 128,-1,21
 137 691 137 691 183 712 c 128,-1,22
 229 733 229 733 291 733 c 0,23,24
 388 733 388 733 440.5 686 c 128,-1,25
 493 639 493 639 493 558 c 1,26,-1
 378 558 l 1,27,28
 378 592 378 592 356 610.5 c 128,-1,29
 334 629 334 629 290 629 c 0,30,31
 251 629 251 629 229.5 613 c 128,-1,32
 208 597 208 597 208 567 c 0,33,34
 208 531 208 531 238 513.5 c 128,-1,35
 268 496 268 496 344 477 c 0,36,37
 513 434 513 434 513 288 c 0,38,39
 513 230 513 230 485.5 188.5 c 128,-1,40
 458 147 458 147 412 127 c 1,41,42
 455 105 455 105 472.5 72.5 c 128,-1,43
 490 40 490 40 490 -6 c 0,44,45
 490 -82 490 -82 433.5 -127 c 128,-1,46
 377 -172 377 -172 283 -172 c 0,47,0
 184 -172 184 -172 130.5 -126 c 128,-1,1
364 216.5 m 128,-1,49
 390 240 390 240 390 283 c 0,50,51
 390 327 390 327 364 350 c 128,-1,52
 338 373 338 373 288 373 c 0,53,54
 237 373 237 373 210 350 c 128,-1,55
 183 327 183 327 183 283 c 0,56,57
 183 240 183 240 210 216.5 c 128,-1,58
 237 193 237 193 288 193 c 0,59,48
 338 193 338 193 364 216.5 c 128,-1,49
EndSplineSet
Validated: 1
EndChar

StartChar: dieresis
Encoding: 168 168 107
Width: 512
GlyphClass: 2
Flags: W
LayerCount: 2
Fore
SplineSet
84 720 m 1,0,-1
 194 720 l 1,1,-1
 194 601 l 1,2,-1
 84 601 l 1,3,-1
 84 720 l 1,0,-1
318 720 m 1,4,-1
 428 720 l 1,5,-1
 428 601 l 1,6,-1
 318 601 l 1,7,-1
 318 720 l 1,4,-1
EndSplineSet
Validated: 1
EndChar

StartChar: copyright
Encoding: 169 169 108
Width: 802
GlyphClass: 2
Flags: W
LayerCount: 2
Fore
SplineSet
221.5 36 m 128,-1,1
 142 81 142 81 99 162.5 c 128,-1,2
 56 244 56 244 56 350 c 0,3,4
 56 458 56 458 99 539.5 c 128,-1,5
 142 621 142 621 221.5 665.5 c 128,-1,6
 301 710 301 710 407 710 c 256,7,8
 512 710 512 710 591.5 665 c 128,-1,9
 671 620 671 620 714 538.5 c 128,-1,10
 757 457 757 457 757 350 c 256,11,12
 757 244 757 244 714 162.5 c 128,-1,13
 671 81 671 81 591.5 36 c 128,-1,14
 512 -9 512 -9 407 -9 c 256,15,0
 301 -9 301 -9 221.5 36 c 128,-1,1
602.5 145 m 128,-1,17
 674 220 674 220 674 350 c 256,18,19
 674 480 674 480 602.5 556 c 128,-1,20
 531 632 531 632 407 632 c 256,21,22
 282 632 282 632 210.5 556 c 128,-1,23
 139 480 139 480 139 350 c 256,24,25
 139 220 139 220 210.5 145 c 128,-1,26
 282 70 282 70 407 70 c 256,27,16
 531 70 531 70 602.5 145 c 128,-1,17
283.5 197 m 128,-1,29
 238 242 238 242 238 328 c 2,30,-1
 238 373 l 2,31,32
 238 459 238 459 283.5 504 c 128,-1,33
 329 549 329 549 407 549 c 0,34,35
 484 549 484 549 528 511 c 128,-1,36
 572 473 572 473 572 408 c 2,37,-1
 572 402 l 1,38,-1
 483 402 l 1,39,-1
 483 406 l 2,40,41
 483 435 483 435 463 451 c 128,-1,42
 443 467 443 467 410 467 c 0,43,44
 370 467 370 467 349.5 444.5 c 128,-1,45
 329 422 329 422 329 372 c 2,46,-1
 329 328 l 2,47,48
 329 278 329 278 350 255 c 128,-1,49
 371 232 371 232 412 232 c 0,50,51
 445 232 445 232 464 248 c 128,-1,52
 483 264 483 264 483 292 c 2,53,-1
 483 295 l 1,54,-1
 572 295 l 1,55,-1
 572 292 l 2,56,57
 572 226 572 226 527.5 189 c 128,-1,58
 483 152 483 152 407 152 c 0,59,28
 329 152 329 152 283.5 197 c 128,-1,29
EndSplineSet
Validated: 1
EndChar

StartChar: ordfeminine
Encoding: 170 170 109
Width: 386
GlyphClass: 2
Flags: W
LayerCount: 2
Fore
SplineSet
341 639 m 2,1,-1
 341 440 l 1,2,-1
 253 440 l 1,3,-1
 253 471 l 1,4,5
 234 453 234 453 212 444.5 c 128,-1,6
 190 436 190 436 159 436 c 0,7,8
 101 436 101 436 69 464 c 128,-1,9
 37 492 37 492 37 540 c 0,10,11
 37 586 37 586 69.5 610 c 128,-1,12
 102 634 102 634 167 634 c 2,13,-1
 250 634 l 1,14,-1
 250 645 l 2,15,16
 250 673 250 673 234.5 685.5 c 128,-1,17
 219 698 219 698 186 698 c 0,18,19
 157 698 157 698 144 688.5 c 128,-1,20
 131 679 131 679 131 665 c 2,21,-1
 131 663 l 1,22,-1
 47 663 l 1,23,-1
 47 665 l 2,24,25
 47 711 47 711 83 738.5 c 128,-1,26
 119 766 119 766 187 766 c 0,27,0
 341 766 341 766 341 639 c 2,1,-1
250 565 m 2,29,-1
 250 574 l 1,30,-1
 178 574 l 2,31,32
 125 574 125 574 125 543 c 0,33,34
 125 527 125 527 139 517.5 c 128,-1,35
 153 508 153 508 179 508 c 0,36,28
 250 508 250 508 250 565 c 2,29,-1
EndSplineSet
Validated: 1
EndChar

StartChar: guillemotleft
Encoding: 171 171 110
Width: 595
GlyphClass: 2
Flags: W
LayerCount: 2
Fore
SplineSet
18 270 m 1,0,-1
 280 503 l 1,1,-1
 280 375 l 1,2,-1
 161 270 l 1,3,-1
 280 166 l 1,4,-1
 280 38 l 1,5,-1
 18 270 l 1,0,-1
280 270 m 1,6,-1
 541 503 l 1,7,-1
 541 375 l 1,8,-1
 421 270 l 1,9,-1
 541 166 l 1,10,-1
 541 38 l 1,11,-1
 280 270 l 1,6,-1
EndSplineSet
Validated: 1
EndChar

StartChar: logicalnot
Encoding: 172 172 111
Width: 541
GlyphClass: 2
Flags: W
LayerCount: 2
Fore
SplineSet
364 260 m 1,0,-1
 51 260 l 1,1,-1
 51 374 l 1,2,-1
 489 374 l 1,3,-1
 489 123 l 1,4,-1
 364 123 l 1,5,-1
 364 260 l 1,0,-1
EndSplineSet
Validated: 1
EndChar

StartChar: registered
Encoding: 174 174 113
Width: 506
GlyphClass: 2
Flags: W
LayerCount: 2
Fore
SplineSet
154.5 341 m 128,-1,1
 111 367 111 367 85.5 412 c 128,-1,2
 60 457 60 457 60 512 c 256,3,4
 60 567 60 567 85.5 611.5 c 128,-1,5
 111 656 111 656 155 682 c 128,-1,6
 199 708 199 708 253 708 c 0,7,8
 308 708 308 708 352 682 c 128,-1,9
 396 656 396 656 421 611 c 128,-1,10
 446 566 446 566 446 512 c 0,11,12
 446 457 446 457 421 412 c 128,-1,13
 396 367 396 367 352 341 c 128,-1,14
 308 315 308 315 253 315 c 256,15,0
 198 315 198 315 154.5 341 c 128,-1,1
360.5 399.5 m 128,-1,17
 402 443 402 443 402 512 c 256,18,19
 402 581 402 581 360 624 c 128,-1,20
 318 667 318 667 253 667 c 256,21,22
 187 667 187 667 145 624 c 128,-1,23
 103 581 103 581 103 512 c 256,24,25
 103 443 103 443 145 399.5 c 128,-1,26
 187 356 187 356 253 356 c 256,27,16
 319 356 319 356 360.5 399.5 c 128,-1,17
174 622 m 1,28,-1
 264 622 l 2,29,30
 302 622 302 622 322.5 604.5 c 128,-1,31
 343 587 343 587 343 554 c 0,32,33
 343 511 343 511 305 493 c 1,34,-1
 348 404 l 1,35,-1
 291 404 l 1,36,-1
 253 484 l 1,37,-1
 227 484 l 1,38,-1
 227 404 l 1,39,-1
 174 404 l 1,40,-1
 174 622 l 1,28,-1
261 529 m 2,41,42
 290 529 290 529 290 553 c 256,43,44
 290 577 290 577 261 577 c 2,45,-1
 227 577 l 1,46,-1
 227 529 l 1,47,-1
 261 529 l 2,41,42
EndSplineSet
Validated: 1
EndChar

StartChar: macron
Encoding: 175 175 114
Width: 512
GlyphClass: 2
Flags: W
LayerCount: 2
Fore
SplineSet
93 717 m 1,0,-1
 419 717 l 1,1,-1
 419 604 l 1,2,-1
 93 604 l 1,3,-1
 93 717 l 1,0,-1
EndSplineSet
Validated: 1
EndChar

StartChar: degree
Encoding: 176 176 115
Width: 403
GlyphClass: 2
Flags: W
LayerCount: 2
Fore
SplineSet
99 460 m 128,-1,1
 56 503 56 503 56 567 c 0,2,3
 56 609 56 609 75.5 643.5 c 128,-1,4
 95 678 95 678 130 698 c 128,-1,5
 165 718 165 718 207 718 c 256,6,7
 249 718 249 718 283 698 c 128,-1,8
 317 678 317 678 337 643.5 c 128,-1,9
 357 609 357 609 357 567 c 256,10,11
 357 525 357 525 337 490.5 c 128,-1,12
 317 456 317 456 283 436.5 c 128,-1,13
 249 417 249 417 207 417 c 0,14,0
 142 417 142 417 99 460 c 128,-1,1
258 515 m 128,-1,16
 278 536 278 536 278 567 c 256,17,18
 278 599 278 599 258 620 c 128,-1,19
 238 641 238 641 207 641 c 0,20,21
 175 641 175 641 155.5 620.5 c 128,-1,22
 136 600 136 600 136 567 c 256,23,24
 136 534 136 534 155.5 514 c 128,-1,25
 175 494 175 494 207 494 c 0,26,15
 238 494 238 494 258 515 c 128,-1,16
EndSplineSet
Validated: 1
EndChar

StartChar: plusminus
Encoding: 177 177 116
Width: 541
GlyphClass: 2
Flags: W
LayerCount: 2
Fore
SplineSet
213 288 m 1,0,-1
 49 288 l 1,1,-1
 49 404 l 1,2,-1
 213 404 l 1,3,-1
 213 568 l 1,4,-1
 330 568 l 1,5,-1
 330 404 l 1,6,-1
 493 404 l 1,7,-1
 493 288 l 1,8,-1
 330 288 l 1,9,-1
 330 124 l 1,10,-1
 213 124 l 1,11,-1
 213 288 l 1,0,-1
49 80 m 1,12,-1
 493 80 l 1,13,-1
 493 -37 l 1,14,-1
 49 -37 l 1,15,-1
 49 80 l 1,12,-1
EndSplineSet
Validated: 1
EndChar

StartChar: uni00B2
Encoding: 178 178 117
Width: 399
GlyphClass: 2
Flags: W
LayerCount: 2
Fore
SplineSet
51 522 m 1,0,-1
 209 681 l 2,1,2
 228 698 228 698 236.5 712 c 128,-1,3
 245 726 245 726 245 740 c 2,4,-1
 245 746 l 2,5,6
 245 788 245 788 197 788 c 0,7,8
 173 788 173 788 160.5 777.5 c 128,-1,9
 148 767 148 767 148 748 c 2,10,-1
 148 741 l 1,11,-1
 47 741 l 1,12,-1
 47 751 l 2,13,14
 47 809 47 809 87 843 c 128,-1,15
 127 877 127 877 200 877 c 0,16,17
 271 877 271 877 311.5 842 c 128,-1,18
 352 807 352 807 352 752 c 2,19,-1
 352 743 l 2,20,21
 352 706 352 706 336.5 678.5 c 128,-1,22
 321 651 321 651 282 616 c 2,23,-1
 200 531 l 1,24,-1
 352 531 l 1,25,-1
 352 440 l 1,26,-1
 51 440 l 1,27,-1
 51 522 l 1,0,-1
EndSplineSet
Validated: 1
EndChar

StartChar: uni00B3
Encoding: 179 179 118
Width: 393
GlyphClass: 2
Flags: W
LayerCount: 2
Fore
SplineSet
82.5 464.5 m 128,-1,1
 44 496 44 496 44 556 c 2,2,-1
 44 564 l 1,3,-1
 139 564 l 1,4,-1
 139 558 l 2,5,6
 139 519 139 519 194 519 c 0,7,8
 220 519 220 519 233 530.5 c 128,-1,9
 246 542 246 542 246 562 c 2,10,-1
 246 569 l 2,11,12
 246 616 246 616 184 616 c 2,13,-1
 160 616 l 1,14,-1
 160 703 l 1,15,-1
 183 703 l 2,16,17
 238 703 238 703 239 743 c 2,18,-1
 239 751 l 2,19,20
 239 791 239 791 190 791 c 0,21,22
 140 791 140 791 140 753 c 2,23,-1
 140 745 l 1,24,-1
 46 745 l 1,25,-1
 46 752 l 2,26,27
 46 813 46 813 84.5 845 c 128,-1,28
 123 877 123 877 195 877 c 0,29,30
 263 877 263 877 301.5 845 c 128,-1,31
 340 813 340 813 340 759 c 2,32,-1
 340 752 l 2,33,34
 340 725 340 725 325 703 c 128,-1,35
 310 681 310 681 282 669 c 1,36,37
 314 661 314 661 331 634.5 c 128,-1,38
 348 608 348 608 348 571 c 2,39,-1
 348 563 l 2,40,41
 348 504 348 504 306 468.5 c 128,-1,42
 264 433 264 433 196 433 c 0,43,0
 121 433 121 433 82.5 464.5 c 128,-1,1
EndSplineSet
Validated: 1
EndChar

StartChar: acute
Encoding: 180 180 119
Width: 512
GlyphClass: 2
Flags: W
LayerCount: 2
Fore
SplineSet
241 738 m 1,0,-1
 381 738 l 1,1,-1
 240 602 l 1,2,-1
 130 602 l 1,3,-1
 241 738 l 1,0,-1
EndSplineSet
Validated: 1
EndChar

StartChar: uni00B5
Encoding: 181 181 120
Width: 585
GlyphClass: 2
Flags: W
LayerCount: 2
Fore
SplineSet
55 532 m 1,0,-1
 182 532 l 1,1,-1
 182 226 l 2,2,3
 182 166 182 166 209.5 136 c 128,-1,4
 237 106 237 106 288 106 c 0,5,6
 341 106 341 106 372 138 c 128,-1,7
 403 170 403 170 403 231 c 2,8,-1
 403 532 l 1,9,-1
 530 532 l 1,10,-1
 530 0 l 1,11,-1
 407 0 l 1,12,-1
 407 57 l 1,13,14
 388 27 388 27 351 10.5 c 128,-1,15
 314 -6 314 -6 271 -6 c 0,16,17
 220 -6 220 -6 182 14 c 1,18,-1
 182 -160 l 1,19,-1
 55 -160 l 1,20,-1
 55 532 l 1,0,-1
EndSplineSet
Validated: 1
EndChar

StartChar: paragraph
Encoding: 182 182 121
Width: 714
GlyphClass: 2
Flags: W
LayerCount: 2
Fore
SplineSet
311 269 m 1,0,-1
 309 269 l 2,1,2
 190 269 190 269 125 326.5 c 128,-1,3
 60 384 60 384 60 488 c 256,4,5
 60 592 60 592 125 649.5 c 128,-1,6
 190 707 190 707 306 707 c 2,7,-1
 624 707 l 1,8,-1
 624 -160 l 1,9,-1
 512 -160 l 1,10,-1
 512 604 l 1,11,-1
 424 604 l 1,12,-1
 424 -160 l 1,13,-1
 311 -160 l 1,14,-1
 311 269 l 1,0,-1
EndSplineSet
Validated: 1
EndChar

StartChar: cedilla
Encoding: 184 184 123
Width: 512
GlyphClass: 2
Flags: W
LayerCount: 2
Fore
SplineSet
236 13 m 1,0,-1
 339 13 l 1,1,-1
 268 -160 l 1,2,-1
 146 -160 l 1,3,-1
 236 13 l 1,0,-1
EndSplineSet
Validated: 1
EndChar

StartChar: uni00B9
Encoding: 185 185 124
Width: 291
GlyphClass: 2
Flags: W
LayerCount: 2
Fore
SplineSet
123 760 m 1,0,-1
 32 710 l 1,1,-1
 32 818 l 1,2,-1
 123 869 l 1,3,-1
 228 869 l 1,4,-1
 228 440 l 1,5,-1
 123 440 l 1,6,-1
 123 760 l 1,0,-1
EndSplineSet
Validated: 1
EndChar

StartChar: ordmasculine
Encoding: 186 186 125
Width: 387
GlyphClass: 2
Flags: W
LayerCount: 2
Fore
SplineSet
79.5 474.5 m 128,-1,1
 39 513 39 513 39 587 c 2,2,-1
 39 620 l 2,3,4
 39 691 39 691 80 728.5 c 128,-1,5
 121 766 121 766 194 766 c 256,6,7
 267 766 267 766 307.5 728 c 128,-1,8
 348 690 348 690 348 620 c 2,9,-1
 348 587 l 2,10,11
 348 514 348 514 306.5 475 c 128,-1,12
 265 436 265 436 194 436 c 0,13,0
 120 436 120 436 79.5 474.5 c 128,-1,1
240 536 m 128,-1,15
 257 554 257 554 257 588 c 2,16,-1
 257 620 l 2,17,18
 257 652 257 652 240 668 c 128,-1,19
 223 684 223 684 194 684 c 256,20,21
 164 684 164 684 147 667.5 c 128,-1,22
 130 651 130 651 130 620 c 2,23,-1
 130 588 l 2,24,25
 130 554 130 554 147 536 c 128,-1,26
 164 518 164 518 194 518 c 256,27,14
 223 518 223 518 240 536 c 128,-1,15
EndSplineSet
Validated: 1
EndChar

StartChar: guillemotright
Encoding: 187 187 126
Width: 595
GlyphClass: 2
Flags: W
LayerCount: 2
Fore
SplineSet
55 38 m 1,0,-1
 55 166 l 1,1,-1
 175 270 l 1,2,-1
 55 375 l 1,3,-1
 55 503 l 1,4,-1
 316 270 l 1,5,-1
 55 38 l 1,0,-1
316 166 m 1,6,-1
 435 270 l 1,7,-1
 316 375 l 1,8,-1
 316 503 l 1,9,-1
 578 270 l 1,10,-1
 316 38 l 1,11,-1
 316 166 l 1,6,-1
EndSplineSet
Validated: 1
EndChar

StartChar: onequarter
Encoding: 188 188 127
Width: 879
GlyphClass: 3
Flags: W
LayerCount: 2
Fore
SplineSet
684 712 m 1,0,-1
 229 0 l 1,1,-1
 126 0 l 1,2,-1
 580 712 l 1,3,-1
 684 712 l 1,0,-1
123 278 m 1,4,-1
 123 597 l 1,5,-1
 32 547 l 1,6,-1
 32 655 l 1,7,-1
 123 707 l 1,8,-1
 228 707 l 1,9,-1
 228 278 l 1,10,-1
 123 278 l 1,4,-1
850 58 m 1,11,-1
 819 58 l 1,12,-1
 819 0 l 1,13,-1
 714 0 l 1,14,-1
 714 58 l 1,15,-1
 514 58 l 1,16,-1
 514 150 l 1,17,-1
 651 429 l 1,18,-1
 759 429 l 1,19,-1
 622 150 l 1,20,-1
 714 150 l 1,21,-1
 714 240 l 1,22,-1
 819 240 l 1,23,-1
 819 150 l 1,24,-1
 850 150 l 1,25,-1
 850 58 l 1,11,-1
EndSplineSet
Validated: 1
Ligature2: "'frac' Diagonal Fractions lookup 2 subtable" one slash four
EndChar

StartChar: onehalf
Encoding: 189 189 128
Width: 903
GlyphClass: 3
Flags: W
LayerCount: 2
Fore
SplineSet
580 712 m 1,0,-1
 684 712 l 1,1,-1
 229 0 l 1,2,-1
 126 0 l 1,3,-1
 580 712 l 1,0,-1
123 597 m 1,4,-1
 32 547 l 1,5,-1
 32 655 l 1,6,-1
 123 707 l 1,7,-1
 228 707 l 1,8,-1
 228 278 l 1,9,-1
 123 278 l 1,10,-1
 123 597 l 1,4,-1
555 82 m 1,11,-1
 713 241 l 2,12,13
 732 258 732 258 740.5 272 c 128,-1,14
 749 286 749 286 749 300 c 2,15,-1
 749 306 l 2,16,17
 749 348 749 348 700 348 c 0,18,19
 676 348 676 348 664 337.5 c 128,-1,20
 652 327 652 327 652 307 c 2,21,-1
 652 301 l 1,22,-1
 551 301 l 1,23,-1
 551 310 l 2,24,25
 551 368 551 368 591 402 c 128,-1,26
 631 436 631 436 703 436 c 0,27,28
 774 436 774 436 815 401.5 c 128,-1,29
 856 367 856 367 856 311 c 2,30,-1
 856 303 l 2,31,32
 856 266 856 266 840 238.5 c 128,-1,33
 824 211 824 211 785 176 c 2,34,-1
 703 91 l 1,35,-1
 856 91 l 1,36,-1
 856 0 l 1,37,-1
 555 0 l 1,38,-1
 555 82 l 1,11,-1
EndSplineSet
Validated: 1
Ligature2: "'frac' Diagonal Fractions lookup 2 subtable" one slash two
EndChar

StartChar: threequarters
Encoding: 190 190 129
Width: 974
GlyphClass: 3
Flags: W
LayerCount: 2
Fore
SplineSet
306 305.5 m 128,-1,1
 264 270 264 270 196 270 c 0,2,3
 121 270 121 270 82.5 301.5 c 128,-1,4
 44 333 44 333 44 393 c 2,5,-1
 44 401 l 1,6,-1
 139 401 l 1,7,-1
 139 395 l 2,8,9
 139 356 139 356 194 356 c 0,10,11
 220 356 220 356 233 367.5 c 128,-1,12
 246 379 246 379 246 399 c 2,13,-1
 246 407 l 2,14,15
 246 454 246 454 184 454 c 2,16,-1
 160 454 l 1,17,-1
 160 541 l 1,18,-1
 183 541 l 2,19,20
 238 541 238 541 239 581 c 2,21,-1
 239 588 l 2,22,23
 239 628 239 628 190 628 c 0,24,25
 140 628 140 628 140 590 c 2,26,-1
 140 583 l 1,27,-1
 46 583 l 1,28,-1
 46 589 l 2,29,30
 46 650 46 650 84.5 682 c 128,-1,31
 123 714 123 714 195 714 c 0,32,33
 263 714 263 714 301.5 682 c 128,-1,34
 340 650 340 650 340 596 c 2,35,-1
 340 589 l 2,36,37
 340 562 340 562 325 539.5 c 128,-1,38
 310 517 310 517 282 506 c 1,39,40
 314 498 314 498 331 471.5 c 128,-1,41
 348 445 348 445 348 409 c 2,42,-1
 348 400 l 2,43,0
 348 341 348 341 306 305.5 c 128,-1,1
779 712 m 1,44,-1
 325 0 l 1,45,-1
 221 0 l 1,46,-1
 675 712 l 1,47,-1
 779 712 l 1,44,-1
945 58 m 1,48,-1
 914 58 l 1,49,-1
 914 0 l 1,50,-1
 809 0 l 1,51,-1
 809 58 l 1,52,-1
 609 58 l 1,53,-1
 609 150 l 1,54,-1
 746 429 l 1,55,-1
 854 429 l 1,56,-1
 717 150 l 1,57,-1
 809 150 l 1,58,-1
 809 240 l 1,59,-1
 914 240 l 1,60,-1
 914 150 l 1,61,-1
 945 150 l 1,62,-1
 945 58 l 1,48,-1
EndSplineSet
Validated: 1
Ligature2: "'frac' Diagonal Fractions lookup 2 subtable" three slash four
EndChar

StartChar: questiondown
Encoding: 191 191 130
Width: 512
GlyphClass: 2
Flags: W
LayerCount: 2
Fore
SplineSet
198 532 m 1,0,-1
 332 532 l 1,1,-1
 332 401 l 1,2,-1
 198 401 l 1,3,-1
 198 532 l 1,0,-1
95.5 -121.5 m 128,-1,5
 35 -73 35 -73 35 12 c 0,6,7
 35 54 35 54 50.5 91.5 c 128,-1,8
 66 129 66 129 104 165 c 2,9,-1
 156 213 l 2,10,11
 184 239 184 239 193 260 c 128,-1,12
 202 281 202 281 202 315 c 2,13,-1
 202 333 l 1,14,-1
 329 333 l 1,15,-1
 329 300 l 2,16,17
 329 249 329 249 316.5 219.5 c 128,-1,18
 304 190 304 190 266 156 c 2,19,-1
 217 110 l 2,20,21
 188 84 188 84 177 64 c 128,-1,22
 166 44 166 44 166 20 c 0,23,24
 166 -17 166 -17 191 -36 c 128,-1,25
 216 -55 216 -55 264 -55 c 0,26,27
 313 -55 313 -55 336 -34.5 c 128,-1,28
 359 -14 359 -14 360 27 c 1,29,-1
 484 27 l 1,30,31
 480 -170 480 -170 262 -170 c 0,32,4
 156 -170 156 -170 95.5 -121.5 c 128,-1,5
EndSplineSet
Validated: 1
EndChar

StartChar: Aring
Encoding: 197 197 136
Width: 697
GlyphClass: 2
Flags: W
LayerCount: 2
Fore
SplineSet
499 137 m 1,0,-1
 199 137 l 1,1,-1
 147 0 l 1,2,-1
 4 0 l 1,3,-1
 294 706 l 1,4,5
 270 720 270 720 257 743.5 c 128,-1,6
 244 767 244 767 244 797 c 0,7,8
 244 843 244 843 274 873 c 128,-1,9
 304 903 304 903 349 903 c 256,10,11
 394 903 394 903 424.5 873 c 128,-1,12
 455 843 455 843 455 797 c 0,13,14
 455 767 455 767 441 743 c 128,-1,15
 427 719 427 719 403 706 c 1,16,-1
 693 0 l 1,17,-1
 550 0 l 1,18,-1
 499 137 l 1,0,-1
315.5 832.5 m 128,-1,20
 302 818 302 818 302 797 c 0,21,22
 302 777 302 777 316 762.5 c 128,-1,23
 330 748 330 748 349 748 c 0,24,25
 369 748 369 748 383 762 c 128,-1,26
 397 776 397 776 397 797 c 0,27,28
 397 819 397 819 383.5 833 c 128,-1,29
 370 847 370 847 349 847 c 256,30,19
 329 847 329 847 315.5 832.5 c 128,-1,20
457 249 m 1,31,-1
 348 537 l 1,32,-1
 241 249 l 1,33,-1
 457 249 l 1,31,-1
EndSplineSet
Validated: 1
EndChar

StartChar: AE
Encoding: 198 198 137
Width: 1018
GlyphClass: 2
Flags: W
LayerCount: 2
Fore
SplineSet
617 590 m 1,0,-1
 617 415 l 1,1,-1
 931 415 l 1,2,-1
 931 298 l 1,3,-1
 617 298 l 1,4,-1
 617 117 l 1,5,-1
 983 117 l 1,6,-1
 983 0 l 1,7,-1
 482 0 l 1,8,-1
 482 144 l 1,9,-1
 233 144 l 1,10,-1
 154 0 l 1,11,-1
 4 0 l 1,12,-1
 413 707 l 1,13,-1
 983 707 l 1,14,-1
 983 590 l 1,15,-1
 617 590 l 1,0,-1
482 256 m 1,16,-1
 482 594 l 1,17,-1
 295 256 l 1,18,-1
 482 256 l 1,16,-1
EndSplineSet
Validated: 1
EndChar

StartChar: Ccedilla
Encoding: 199 199 138
Width: 689
GlyphClass: 2
Flags: W
LayerCount: 2
Fore
SplineSet
509 470 m 1,0,-1
 509 474 l 2,1,2
 509 533 509 533 469 567.5 c 128,-1,3
 429 602 429 602 358 602 c 0,4,5
 274 602 274 602 232.5 553 c 128,-1,6
 191 504 191 504 191 402 c 2,7,-1
 191 301 l 2,8,9
 191 204 191 204 233 157 c 128,-1,10
 275 110 275 110 359 110 c 0,11,12
 430 110 430 110 469.5 143 c 128,-1,13
 509 176 509 176 509 234 c 2,14,-1
 509 240 l 1,15,-1
 642 240 l 1,16,-1
 642 234 l 2,17,18
 642 134 642 134 584 71.5 c 128,-1,19
 526 9 526 9 425 -6 c 1,20,-1
 362 -160 l 1,21,-1
 241 -160 l 1,22,-1
 317 -9 l 1,23,24
 193 1 193 1 124.5 78.5 c 128,-1,25
 56 156 56 156 56 299 c 2,26,-1
 56 410 l 2,27,28
 56 565 56 565 136 642.5 c 128,-1,29
 216 720 216 720 358 720 c 0,30,31
 488 720 488 720 565.5 656 c 128,-1,32
 643 592 643 592 643 478 c 2,33,-1
 643 470 l 1,34,-1
 509 470 l 1,0,-1
EndSplineSet
Validated: 1
EndChar

StartChar: Eth
Encoding: 208 208 147
Width: 710
GlyphClass: 2
Flags: W
LayerCount: 2
Fore
SplineSet
587.5 631 m 128,-1,1
 665 555 665 555 665 397 c 2,2,-1
 665 310 l 2,3,4
 665 152 665 152 586 76 c 128,-1,5
 507 0 507 0 364 0 c 2,6,-1
 93 0 l 1,7,-1
 93 301 l 1,8,-1
 28 301 l 1,9,-1
 28 419 l 1,10,-1
 93 419 l 1,11,-1
 93 707 l 1,12,-1
 369 707 l 2,13,0
 510 707 510 707 587.5 631 c 128,-1,1
530 390 m 2,14,15
 530 494 530 494 490.5 542 c 128,-1,16
 451 590 451 590 368 590 c 2,17,-1
 227 590 l 1,18,-1
 227 419 l 1,19,-1
 388 419 l 1,20,-1
 388 301 l 1,21,-1
 227 301 l 1,22,-1
 227 117 l 1,23,-1
 368 117 l 2,24,25
 451 117 451 117 490.5 163.5 c 128,-1,26
 530 210 530 210 530 310 c 2,27,-1
 530 390 l 2,14,15
EndSplineSet
Validated: 1
EndChar

StartChar: multiply
Encoding: 215 215 154
Width: 541
GlyphClass: 2
Flags: W
LayerCount: 2
Fore
SplineSet
71 161 m 1,0,-1
 193 283 l 1,1,-1
 71 406 l 1,2,-1
 148 483 l 1,3,-1
 271 361 l 1,4,-1
 393 483 l 1,5,-1
 471 404 l 1,6,-1
 349 283 l 1,7,-1
 471 161 l 1,8,-1
 393 82 l 1,9,-1
 271 205 l 1,10,-1
 148 82 l 1,11,-1
 71 161 l 1,0,-1
EndSplineSet
Validated: 1
EndChar

StartChar: Oslash
Encoding: 216 216 155
Width: 689
GlyphClass: 2
Flags: W
LayerCount: 2
Fore
SplineSet
644 410 m 2,1,-1
 644 299 l 2,2,3
 644 145 644 145 564.5 67 c 128,-1,4
 485 -11 485 -11 348 -11 c 0,5,6
 245 -11 245 -11 176 33 c 1,7,-1
 140 -20 l 1,8,-1
 56 -20 l 1,9,-1
 123 80 l 1,10,11
 57 160 57 160 57 299 c 2,12,-1
 57 410 l 2,13,14
 57 565 57 565 135.5 642.5 c 128,-1,15
 214 720 214 720 352 720 c 0,16,17
 451 720 451 720 520 679 c 1,18,-1
 556 732 l 1,19,-1
 638 732 l 1,20,-1
 573 635 l 1,21,0
 644 555 644 555 644 410 c 2,1,-1
206 205 m 1,23,-1
 451 572 l 1,24,25
 414 602 414 602 352 602 c 0,26,27
 271 602 271 602 232 553 c 128,-1,28
 193 504 193 504 193 402 c 2,29,-1
 193 301 l 2,30,22
 193 244 193 244 206 205 c 1,23,-1
510 402 m 2,31,32
 510 467 510 467 493 513 c 1,33,-1
 248 141 l 1,34,35
 286 109 286 109 352 110 c 0,36,37
 510 110 510 110 510 301 c 2,38,-1
 510 402 l 2,31,32
EndSplineSet
Validated: 33
EndChar

StartChar: Thorn
Encoding: 222 222 161
Width: 643
GlyphClass: 2
Flags: W
LayerCount: 2
Fore
SplineSet
551 533 m 128,-1,1
 618 476 618 476 618 369 c 0,2,3
 618 267 618 267 551 210 c 128,-1,4
 484 153 484 153 360 153 c 2,5,-1
 195 153 l 1,6,-1
 195 0 l 1,7,-1
 60 0 l 1,8,-1
 60 707 l 1,9,-1
 195 707 l 1,10,-1
 195 590 l 1,11,-1
 366 590 l 2,12,0
 484 590 484 590 551 533 c 128,-1,1
484 370 m 0,14,15
 484 422 484 422 454.5 447.5 c 128,-1,16
 425 473 425 473 371 473 c 2,17,-1
 195 473 l 1,18,-1
 195 269 l 1,19,-1
 371 269 l 2,20,13
 484 270 484 270 484 370 c 0,14,15
EndSplineSet
Validated: 1
EndChar

StartChar: germandbls
Encoding: 223 223 162
Width: 590
GlyphClass: 2
Flags: W
LayerCount: 2
Fore
SplineSet
286 102 m 1,0,-1
 323 102 l 2,1,2
 363 102 363 102 383 115 c 128,-1,3
 403 128 403 128 411 156 c 128,-1,4
 419 184 419 184 419 236 c 256,5,6
 419 287 419 287 410 315.5 c 128,-1,7
 401 344 401 344 378 357.5 c 128,-1,8
 355 371 355 371 312 371 c 2,9,-1
 286 371 l 1,10,-1
 286 476 l 1,11,-1
 322 476 l 2,12,13
 409 476 409 476 409 541 c 0,14,15
 409 576 409 576 382 592 c 128,-1,16
 355 608 355 608 300 608 c 0,17,18
 238 608 238 608 210 585.5 c 128,-1,19
 182 563 182 563 182 511 c 2,20,-1
 182 0 l 1,21,-1
 55 0 l 1,22,-1
 55 500 l 2,23,24
 55 610 55 610 114 663.5 c 128,-1,25
 173 717 173 717 299 717 c 0,26,27
 413 717 413 717 474 673.5 c 128,-1,28
 535 630 535 630 535 548 c 0,29,30
 535 505 535 505 518 475.5 c 128,-1,31
 501 446 501 446 464 428 c 1,32,33
 510 405 510 405 527.5 362 c 128,-1,34
 545 319 545 319 545 236 c 0,35,36
 545 148 545 148 525 96 c 128,-1,37
 505 44 505 44 459.5 20 c 128,-1,38
 414 -4 414 -4 333 -4 c 2,39,-1
 286 -4 l 1,40,-1
 286 102 l 1,0,-1
EndSplineSet
Validated: 1
EndChar

StartChar: ae
Encoding: 230 230 169
Width: 921
GlyphClass: 2
Flags: W
LayerCount: 2
Fore
SplineSet
876 229 m 1,0,-1
 511 229 l 1,1,2
 511 101 511 101 641 101 c 0,3,4
 686 101 686 101 713.5 117.5 c 128,-1,5
 741 134 741 134 746 164 c 1,6,-1
 748 167 l 1,7,-1
 871 167 l 1,8,-1
 870 161 l 1,9,10
 867 113 867 113 839 74 c 128,-1,11
 811 35 811 35 760.5 13 c 128,-1,12
 710 -9 710 -9 641 -9 c 0,13,14
 518 -9 518 -9 449 63 c 1,15,16
 381 -10 381 -10 252 -9 c 0,17,18
 150 -9 150 -9 94 36.5 c 128,-1,19
 38 82 38 82 38 161 c 0,20,21
 38 238 38 238 90.5 277 c 128,-1,22
 143 316 143 316 243 316 c 2,23,-1
 385 316 l 1,24,-1
 385 346 l 2,25,26
 385 441 385 441 272 441 c 0,27,28
 221 441 221 441 198 422.5 c 128,-1,29
 175 404 175 404 175 376 c 2,30,-1
 175 373 l 1,31,-1
 54 373 l 1,32,-1
 54 376 l 2,33,34
 54 452 54 452 114 495.5 c 128,-1,35
 174 539 174 539 275 539 c 0,36,37
 394 539 394 539 456 480 c 1,38,39
 523 541 523 541 631 542 c 0,40,41
 745 542 745 542 810.5 477 c 128,-1,42
 876 412 876 412 876 291 c 2,43,-1
 876 229 l 1,0,-1
750 325 m 2,44,45
 750 378 750 378 717.5 405.5 c 128,-1,46
 685 433 685 433 631 433 c 0,47,48
 517 433 517 433 511 316 c 1,49,-1
 750 316 l 1,50,-1
 750 325 l 2,44,45
354.5 121 m 128,-1,52
 385 147 385 147 385 198 c 2,53,-1
 385 229 l 1,54,-1
 266 229 l 2,55,56
 212 229 212 229 186.5 214 c 128,-1,57
 161 199 161 199 161 165 c 0,58,59
 161 95 161 95 261 95 c 0,60,51
 324 95 324 95 354.5 121 c 128,-1,52
EndSplineSet
Validated: 33
EndChar

StartChar: ccedilla
Encoding: 231 231 170
Width: 572
GlyphClass: 2
Flags: W
LayerCount: 2
Fore
SplineSet
402 339 m 1,0,-1
 402 343 l 2,1,2
 402 383 402 383 373 406 c 128,-1,3
 344 429 344 429 293 429 c 0,4,5
 234 429 234 429 203.5 397.5 c 128,-1,6
 173 366 173 366 173 297 c 2,7,-1
 173 237 l 2,8,9
 173 167 173 167 203.5 135.5 c 128,-1,10
 234 104 234 104 296 104 c 0,11,12
 345 104 345 104 373 126 c 128,-1,13
 401 148 401 148 401 186 c 2,14,-1
 401 190 l 1,15,-1
 525 190 l 1,16,-1
 525 186 l 2,17,18
 525 111 525 111 482.5 62 c 128,-1,19
 440 13 440 13 364 -2 c 1,20,-1
 299 -160 l 1,21,-1
 177 -160 l 1,22,-1
 255 -7 l 1,23,24
 157 1 157 1 102 63 c 128,-1,25
 47 125 47 125 47 236 c 2,26,-1
 47 299 l 2,27,28
 47 418 47 418 111.5 480 c 128,-1,29
 176 542 176 542 290 542 c 0,30,31
 402 542 402 542 464 489.5 c 128,-1,32
 526 437 526 437 526 345 c 2,33,-1
 526 339 l 1,34,-1
 402 339 l 1,0,-1
EndSplineSet
Validated: 1
EndChar

StartChar: eth
Encoding: 240 240 179
Width: 575
GlyphClass: 2
Flags: W
LayerCount: 2
Fore
SplineSet
501.5 395 m 128,-1,1
 529 330 529 330 529 256 c 2,2,-1
 529 230 l 2,3,4
 529 117 529 117 464 53 c 128,-1,5
 399 -11 399 -11 288 -11 c 0,6,7
 174 -11 174 -11 110.5 51.5 c 128,-1,8
 47 114 47 114 47 223 c 2,9,-1
 47 251 l 2,10,11
 47 352 47 352 102 414 c 128,-1,12
 157 476 157 476 249 476 c 0,13,14
 300 476 300 476 334 461 c 1,15,-1
 260 552 l 1,16,-1
 135 517 l 1,17,-1
 110 598 l 1,18,-1
 203 624 l 1,19,-1
 131 712 l 1,20,-1
 269 712 l 1,21,-1
 316 654 l 1,22,-1
 434 686 l 1,23,-1
 459 606 l 1,24,-1
 375 583 l 1,25,-1
 414 536 l 2,26,0
 474 460 474 460 501.5 395 c 128,-1,1
411 252 m 2,27,28
 411 308 411 308 379 341 c 128,-1,29
 347 374 347 374 289 374 c 0,30,31
 229 374 229 374 197 342 c 128,-1,32
 165 310 165 310 165 253 c 2,33,-1
 165 227 l 2,34,35
 165 167 165 167 196.5 133 c 128,-1,36
 228 99 228 99 289 99 c 0,37,38
 348 99 348 99 379.5 133 c 128,-1,39
 411 167 411 167 411 227 c 2,40,-1
 411 252 l 2,27,28
EndSplineSet
Validated: 1
EndChar

StartChar: divide
Encoding: 247 247 186
Width: 541
GlyphClass: 2
Flags: W
LayerCount: 2
Fore
SplineSet
222.5 405 m 128,-1,1
 203 425 203 425 203 454 c 256,2,3
 203 483 203 483 222.5 502.5 c 128,-1,4
 242 522 242 522 270 522 c 256,5,6
 299 522 299 522 319 502 c 128,-1,7
 339 482 339 482 339 454 c 256,8,9
 339 425 339 425 319 405 c 128,-1,10
 299 385 299 385 270 385 c 256,11,0
 242 385 242 385 222.5 405 c 128,-1,1
49 341 m 1,12,-1
 493 341 l 1,13,-1
 493 224 l 1,14,-1
 49 224 l 1,15,-1
 49 341 l 1,12,-1
222.5 64 m 128,-1,17
 203 84 203 84 203 113 c 256,18,19
 203 142 203 142 222.5 161.5 c 128,-1,20
 242 181 242 181 270 181 c 256,21,22
 299 181 299 181 319 161 c 128,-1,23
 339 141 339 141 339 113 c 256,24,25
 339 84 339 84 319.5 64 c 128,-1,26
 300 44 300 44 270 44 c 0,27,16
 242 44 242 44 222.5 64 c 128,-1,17
EndSplineSet
Validated: 1
EndChar

StartChar: oslash
Encoding: 248 248 187
Width: 576
GlyphClass: 2
Flags: W
LayerCount: 2
Fore
SplineSet
471 474 m 1,0,1
 530 412 530 412 530 299 c 2,2,-1
 530 236 l 2,3,4
 530 116 530 116 466 53.5 c 128,-1,5
 402 -9 402 -9 290 -9 c 0,6,7
 210 -9 210 -9 155 22 c 1,8,-1
 119 -30 l 1,9,-1
 47 -30 l 1,10,-1
 108 57 l 1,11,12
 48 119 48 119 47 236 c 2,13,-1
 47 299 l 2,14,15
 47 418 47 418 111.5 480 c 128,-1,16
 176 542 176 542 290 542 c 0,17,18
 371 542 371 542 425 510 c 1,19,-1
 460 559 l 1,20,-1
 530 559 l 1,21,-1
 471 474 l 1,0,1
184 167 m 1,23,-1
 356 412 l 1,24,25
 331 429 331 429 290 429 c 0,26,27
 173 429 173 429 173 297 c 2,28,-1
 173 237 l 2,29,22
 173 196 173 196 184 167 c 1,23,-1
394 364 m 1,31,-1
 223 120 l 1,32,33
 251 105 251 105 290 104 c 0,34,35
 405 104 405 104 404 237 c 2,36,-1
 404 297 l 2,37,30
 404 335 404 335 394 364 c 1,31,-1
EndSplineSet
Validated: 33
EndChar

StartChar: thorn
Encoding: 254 254 193
Width: 584
GlyphClass: 2
Flags: W
LayerCount: 2
Fore
SplineSet
55 707 m 1,0,-1
 182 707 l 1,1,-1
 182 472 l 1,2,3
 208 505 208 505 246 523.5 c 128,-1,4
 284 542 284 542 331 542 c 0,5,6
 426 542 426 542 482.5 480.5 c 128,-1,7
 539 419 539 419 539 303 c 2,8,-1
 539 237 l 2,9,10
 539 160 539 160 511.5 104 c 128,-1,11
 484 48 484 48 437 19.5 c 128,-1,12
 390 -9 390 -9 330 -9 c 0,13,14
 235 -9 235 -9 179 54 c 1,15,-1
 179 -160 l 1,16,-1
 55 -160 l 1,17,-1
 55 707 l 1,0,-1
383 138.5 m 128,-1,19
 412 173 412 173 412 242 c 2,20,-1
 412 297 l 2,21,22
 412 429 412 429 298 429 c 0,23,24
 244 429 244 429 213 394.5 c 128,-1,25
 182 360 182 360 182 299 c 2,26,-1
 182 231 l 2,27,28
 182 173 182 173 214 138.5 c 128,-1,29
 246 104 246 104 300 104 c 256,30,18
 354 104 354 104 383 138.5 c 128,-1,19
EndSplineSet
Validated: 1
EndChar

StartChar: dotlessi
Encoding: 305 305 195
Width: 246
GlyphClass: 2
Flags: W
LayerCount: 2
Fore
SplineSet
60 532 m 1,0,-1
 186 532 l 1,1,-1
 186 0 l 1,2,-1
 60 0 l 1,3,-1
 60 532 l 1,0,-1
EndSplineSet
Validated: 1
EndChar

StartChar: OE
Encoding: 338 338 196
Width: 1038
GlyphClass: 2
Flags: W
LayerCount: 2
Fore
SplineSet
643 590 m 1,0,-1
 643 415 l 1,1,-1
 950 415 l 1,2,-1
 950 298 l 1,3,-1
 643 298 l 1,4,-1
 643 117 l 1,5,-1
 1002 117 l 1,6,-1
 1002 0 l 1,7,-1
 514 0 l 1,8,-1
 514 36 l 1,9,10
 441 -11 441 -11 342 -11 c 0,11,12
 210 -11 210 -11 133 67 c 128,-1,13
 56 145 56 145 56 299 c 2,14,-1
 56 410 l 2,15,16
 56 564 56 564 134 642 c 128,-1,17
 212 720 212 720 345 720 c 0,18,19
 442 720 442 720 514 674 c 1,20,-1
 514 707 l 1,21,-1
 1002 707 l 1,22,-1
 1002 590 l 1,23,-1
 643 590 l 1,0,-1
509 402 m 2,24,25
 509 602 509 602 351 602 c 0,26,27
 270 602 270 602 230.5 553 c 128,-1,28
 191 504 191 504 191 402 c 2,29,-1
 191 301 l 2,30,31
 191 204 191 204 230.5 157 c 128,-1,32
 270 110 270 110 351 110 c 0,33,34
 509 110 509 110 509 301 c 2,35,-1
 509 402 l 2,24,25
EndSplineSet
Validated: 1
EndChar

StartChar: oe
Encoding: 339 339 197
Width: 941
GlyphClass: 2
Flags: W
LayerCount: 2
Fore
SplineSet
530 231 m 1,0,-1
 530 229 l 2,1,2
 530 101 530 101 662 101 c 0,3,4
 706 101 706 101 733.5 117.5 c 128,-1,5
 761 134 761 134 766 164 c 1,6,-1
 767 167 l 1,7,-1
 891 167 l 1,8,-1
 890 161 l 1,9,10
 885 84 885 84 822.5 37.5 c 128,-1,11
 760 -9 760 -9 655 -9 c 0,12,13
 533 -9 533 -9 470 57 c 1,14,15
 407 -10 407 -10 290 -9 c 0,16,17
 176 -9 176 -9 111.5 53.5 c 128,-1,18
 47 116 47 116 47 236 c 2,19,-1
 47 299 l 2,20,21
 47 418 47 418 111.5 480 c 128,-1,22
 176 542 176 542 290 542 c 0,23,24
 407 542 407 542 469 476 c 1,25,26
 535 542 535 542 650 542 c 0,27,28
 764 542 764 542 829.5 477.5 c 128,-1,29
 895 413 895 413 895 293 c 2,30,-1
 895 231 l 1,31,-1
 530 231 l 1,0,-1
530 318 m 1,33,-1
 769 318 l 1,34,-1
 769 326 l 2,35,36
 769 379 769 379 737 406 c 128,-1,37
 705 433 705 433 650 433 c 0,38,32
 537 433 537 433 530 318 c 1,33,-1
404 297 m 2,39,40
 404 365 404 365 374.5 397 c 128,-1,41
 345 429 345 429 290 429 c 0,42,43
 173 429 173 429 173 297 c 2,44,-1
 173 237 l 2,45,46
 173 105 173 105 290 104 c 0,47,48
 405 104 405 104 404 237 c 2,49,-1
 404 297 l 2,39,40
EndSplineSet
Validated: 33
EndChar

StartChar: florin
Encoding: 402 402 203
Width: 480
GlyphClass: 2
Flags: W
LayerCount: 2
Fore
SplineSet
9 -40 m 1,0,-1
 54 -40 l 2,1,2
 95 -40 95 -40 113.5 -23.5 c 128,-1,3
 132 -7 132 -7 139 35 c 2,4,-1
 181 321 l 1,5,-1
 84 321 l 1,6,-1
 84 433 l 1,7,-1
 198 433 l 1,8,-1
 213 530 l 2,9,10
 227 623 227 623 271.5 665 c 128,-1,11
 316 707 316 707 403 707 c 2,12,-1
 471 707 l 1,13,-1
 471 590 l 1,14,-1
 421 590 l 2,15,16
 381 590 381 590 363 574 c 128,-1,17
 345 558 345 558 339 517 c 2,18,-1
 326 433 l 1,19,-1
 452 433 l 1,20,-1
 452 321 l 1,21,-1
 309 321 l 1,22,-1
 264 19 l 2,23,24
 250 -77 250 -77 205.5 -118.5 c 128,-1,25
 161 -160 161 -160 71 -160 c 2,26,-1
 9 -160 l 1,27,-1
 9 -40 l 1,0,-1
EndSplineSet
Validated: 1
EndChar

StartChar: circumflex
Encoding: 710 710 204
Width: 512
GlyphClass: 2
Flags: W
LayerCount: 2
Fore
SplineSet
209 745 m 1,0,-1
 302 745 l 1,1,-1
 440 591 l 1,2,-1
 334 591 l 1,3,-1
 256 673 l 1,4,-1
 178 591 l 1,5,-1
 71 591 l 1,6,-1
 209 745 l 1,0,-1
EndSplineSet
Validated: 1
EndChar

StartChar: caron
Encoding: 711 711 205
Width: 512
GlyphClass: 2
Flags: W
LayerCount: 2
Fore
SplineSet
72 738 m 1,0,-1
 178 738 l 1,1,-1
 257 657 l 1,2,-1
 335 738 l 1,3,-1
 441 738 l 1,4,-1
 303 584 l 1,5,-1
 210 584 l 1,6,-1
 72 738 l 1,0,-1
EndSplineSet
Validated: 1
EndChar

StartChar: dotaccent
Encoding: 729 729 206
Width: 512
GlyphClass: 2
Flags: W
LayerCount: 2
Fore
SplineSet
194 710 m 1,0,-1
 319 710 l 1,1,-1
 319 608 l 1,2,-1
 194 608 l 1,3,-1
 194 710 l 1,0,-1
EndSplineSet
Validated: 1
EndChar

StartChar: ring
Encoding: 730 730 207
Width: 512
GlyphClass: 2
Flags: W
LayerCount: 2
Fore
SplineSet
178.5 621 m 128,-1,1
 148 651 148 651 148 696 c 0,2,3
 148 742 148 742 178.5 772.5 c 128,-1,4
 209 803 209 803 254 803 c 256,5,6
 299 803 299 803 329 772.5 c 128,-1,7
 359 742 359 742 359 696 c 0,8,9
 359 651 359 651 329 621 c 128,-1,10
 299 591 299 591 254 591 c 256,11,0
 209 591 209 591 178.5 621 c 128,-1,1
288 661.5 m 128,-1,13
 302 676 302 676 302 696 c 0,14,15
 302 718 302 718 288 732 c 128,-1,16
 274 746 274 746 254 746 c 256,17,18
 234 746 234 746 220.5 732 c 128,-1,19
 207 718 207 718 207 696 c 0,20,21
 207 676 207 676 220.5 661.5 c 128,-1,22
 234 647 234 647 254 647 c 256,23,12
 274 647 274 647 288 661.5 c 128,-1,13
EndSplineSet
Validated: 1
EndChar

StartChar: tilde
Encoding: 732 732 208
Width: 512
GlyphClass: 2
Flags: W
LayerCount: 2
Fore
SplineSet
92 689 m 1,0,1
 117 712 117 712 138.5 722 c 128,-1,2
 160 732 160 732 186 732 c 0,3,4
 210 732 210 732 227.5 727 c 128,-1,5
 245 722 245 722 267 712 c 0,6,7
 289 703 289 703 302 698 c 128,-1,8
 315 693 315 693 333 693 c 0,9,10
 355 693 355 693 372 702 c 128,-1,11
 389 711 389 711 419 734 c 1,12,-1
 419 640 l 1,13,14
 394 616 394 616 373 606.5 c 128,-1,15
 352 597 352 597 326 597 c 0,16,17
 303 597 303 597 285.5 602 c 128,-1,18
 268 607 268 607 246 617 c 0,19,20
 224 626 224 626 211 631 c 128,-1,21
 198 636 198 636 180 636 c 0,22,23
 158 636 158 636 141 628 c 128,-1,24
 124 620 124 620 92 596 c 1,25,-1
 92 689 l 1,0,1
EndSplineSet
Validated: 1
EndChar

StartChar: gravecomb
Encoding: 768 768 209
Width: 0
GlyphClass: 2
Flags: W
LayerCount: 2
Fore
SplineSet
-185 738 m 1,0,-1
 -33 738 l 1,1,-1
 90 602 l 1,2,-1
 -25 602 l 1,3,-1
 -185 738 l 1,0,-1
EndSplineSet
Validated: 1
EndChar

StartChar: acutecomb
Encoding: 769 769 210
Width: 0
GlyphClass: 2
Flags: W
LayerCount: 2
Fore
SplineSet
36 738 m 1,0,-1
 188 738 l 1,1,-1
 28 602 l 1,2,-1
 -87 602 l 1,3,-1
 36 738 l 1,0,-1
EndSplineSet
Validated: 1
EndChar

StartChar: uni0302
Encoding: 770 770 211
Width: 0
GlyphClass: 2
Flags: W
LayerCount: 2
Fore
SplineSet
-47 745 m 1,0,-1
 46 745 l 1,1,-1
 184 591 l 1,2,-1
 78 591 l 1,3,-1
 0 673 l 1,4,-1
 -79 591 l 1,5,-1
 -185 591 l 1,6,-1
 -47 745 l 1,0,-1
EndSplineSet
Validated: 1
EndChar

StartChar: tildecomb
Encoding: 771 771 212
Width: 0
GlyphClass: 2
Flags: W
LayerCount: 2
Fore
SplineSet
-164 689 m 1,0,1
 -139 713 -139 713 -118 722.5 c 128,-1,2
 -97 732 -97 732 -70 732 c 0,3,4
 -47 732 -47 732 -29.5 727 c 128,-1,5
 -12 722 -12 722 10 712 c 0,6,7
 30 703 30 703 44.5 698 c 128,-1,8
 59 693 59 693 77 693 c 0,9,10
 99 693 99 693 116 702 c 128,-1,11
 133 711 133 711 163 734 c 1,12,-1
 163 640 l 1,13,14
 138 616 138 616 117 606.5 c 128,-1,15
 96 597 96 597 70 597 c 0,16,17
 47 597 47 597 29.5 602.5 c 128,-1,18
 12 608 12 608 -11 618 c 0,19,20
 -14 619 -14 619 -27.5 625 c 128,-1,21
 -41 631 -41 631 -53 633.5 c 128,-1,22
 -65 636 -65 636 -76 636 c 0,23,24
 -98 636 -98 636 -116 627 c 128,-1,25
 -134 618 -134 618 -164 596 c 1,26,-1
 -164 689 l 1,0,1
EndSplineSet
Validated: 1
EndChar

StartChar: uni0308
Encoding: 776 776 213
Width: 0
GlyphClass: 2
Flags: W
LayerCount: 2
Fore
SplineSet
-173 720 m 1,0,-1
 -63 720 l 1,1,-1
 -63 601 l 1,2,-1
 -173 601 l 1,3,-1
 -173 720 l 1,0,-1
62 720 m 1,4,-1
 172 720 l 1,5,-1
 172 601 l 1,6,-1
 62 601 l 1,7,-1
 62 720 l 1,4,-1
EndSplineSet
Validated: 1
EndChar

StartChar: uni030A
Encoding: 778 778 214
Width: 0
GlyphClass: 2
Flags: W
LayerCount: 2
Fore
SplineSet
-75 631.5 m 128,-1,1
 -105 662 -105 662 -105 707 c 0,2,3
 -105 753 -105 753 -75 783 c 128,-1,4
 -45 813 -45 813 0 813 c 256,5,6
 45 813 45 813 75 783 c 128,-1,7
 105 753 105 753 105 707 c 0,8,9
 105 662 105 662 75 631.5 c 128,-1,10
 45 601 45 601 0 601 c 256,11,0
 -45 601 -45 601 -75 631.5 c 128,-1,1
34 671.5 m 128,-1,13
 48 686 48 686 48 707 c 0,14,15
 48 729 48 729 34 743 c 128,-1,16
 20 757 20 757 0 757 c 256,17,18
 -20 757 -20 757 -33.5 742.5 c 128,-1,19
 -47 728 -47 728 -47 707 c 0,20,21
 -47 687 -47 687 -33 672 c 128,-1,22
 -19 657 -19 657 0 657 c 0,23,12
 20 657 20 657 34 671.5 c 128,-1,13
EndSplineSet
Validated: 1
EndChar

StartChar: endash
Encoding: 8211 8211 215
Width: 480
GlyphClass: 2
Flags: W
LayerCount: 2
Fore
SplineSet
0 413 m 1,0,-1
 480 413 l 1,1,-1
 480 295 l 1,2,-1
 0 295 l 1,3,-1
 0 413 l 1,0,-1
EndSplineSet
Validated: 1
EndChar

StartChar: emdash
Encoding: 8212 8212 216
Width: 959
GlyphClass: 2
Flags: W
LayerCount: 2
Fore
SplineSet
0 413 m 1,0,-1
 959 413 l 1,1,-1
 959 295 l 1,2,-1
 0 295 l 1,3,-1
 0 413 l 1,0,-1
EndSplineSet
Validated: 1
EndChar

StartChar: quoteleft
Encoding: 8216 8216 217
Width: 197
GlyphClass: 2
Flags: W
LayerCount: 2
Fore
SplineSet
39 648 m 1,0,-1
 159 750 l 1,1,-1
 159 443 l 1,2,-1
 39 443 l 1,3,-1
 39 648 l 1,0,-1
EndSplineSet
Validated: 1
EndChar

StartChar: quoteright
Encoding: 8217 8217 218
Width: 197
GlyphClass: 2
Flags: W
LayerCount: 2
Fore
SplineSet
39 707 m 1,0,-1
 159 707 l 1,1,-1
 159 502 l 1,2,-1
 39 400 l 1,3,-1
 39 707 l 1,0,-1
EndSplineSet
Validated: 1
EndChar

StartChar: quotedblleft
Encoding: 8220 8220 220
Width: 407
GlyphClass: 2
Flags: W
LayerCount: 2
Fore
SplineSet
39 648 m 1,0,-1
 159 750 l 1,1,-1
 159 443 l 1,2,-1
 39 443 l 1,3,-1
 39 648 l 1,0,-1
249 648 m 1,4,-1
 369 750 l 1,5,-1
 369 443 l 1,6,-1
 249 443 l 1,7,-1
 249 648 l 1,4,-1
EndSplineSet
Validated: 1
EndChar

StartChar: quotedblright
Encoding: 8221 8221 221
Width: 407
GlyphClass: 2
Flags: W
LayerCount: 2
Fore
SplineSet
39 707 m 1,0,-1
 159 707 l 1,1,-1
 159 502 l 1,2,-1
 39 400 l 1,3,-1
 39 707 l 1,0,-1
249 707 m 1,4,-1
 369 707 l 1,5,-1
 369 502 l 1,6,-1
 249 400 l 1,7,-1
 249 707 l 1,4,-1
EndSplineSet
Validated: 1
EndChar

StartChar: dagger
Encoding: 8224 8224 223
Width: 614
GlyphClass: 2
Flags: W
LayerCount: 2
Fore
SplineSet
559 369 m 1,0,-1
 376 369 l 1,1,-1
 376 -160 l 1,2,-1
 242 -160 l 1,3,-1
 242 369 l 1,4,-1
 55 369 l 1,5,-1
 55 485 l 1,6,-1
 242 485 l 1,7,-1
 242 707 l 1,8,-1
 376 707 l 1,9,-1
 376 485 l 1,10,-1
 559 485 l 1,11,-1
 559 369 l 1,0,-1
EndSplineSet
Validated: 1
EndChar

StartChar: daggerdbl
Encoding: 8225 8225 224
Width: 614
GlyphClass: 2
Flags: W
LayerCount: 2
Fore
SplineSet
376 376 m 1,0,-1
 376 176 l 1,1,-1
 559 176 l 1,2,-1
 559 58 l 1,3,-1
 376 58 l 1,4,-1
 376 -160 l 1,5,-1
 242 -160 l 1,6,-1
 242 58 l 1,7,-1
 55 58 l 1,8,-1
 55 176 l 1,9,-1
 242 176 l 1,10,-1
 242 376 l 1,11,-1
 55 376 l 1,12,-1
 55 494 l 1,13,-1
 242 494 l 1,14,-1
 242 707 l 1,15,-1
 376 707 l 1,16,-1
 376 494 l 1,17,-1
 559 494 l 1,18,-1
 559 376 l 1,19,-1
 376 376 l 1,0,-1
EndSplineSet
Validated: 1
EndChar

StartChar: bullet
Encoding: 8226 8226 225
Width: 463
GlyphClass: 2
Flags: W
LayerCount: 2
Fore
SplineSet
125 208 m 128,-1,1
 83 250 83 250 83 315 c 256,2,3
 83 381 83 381 125 423 c 128,-1,4
 167 465 167 465 232 465 c 256,5,6
 297 465 297 465 339 423 c 128,-1,7
 381 381 381 381 381 315 c 256,8,9
 381 249 381 249 339 207.5 c 128,-1,10
 297 166 297 166 232 166 c 256,11,0
 167 166 167 166 125 208 c 128,-1,1
EndSplineSet
Validated: 1
EndChar

StartChar: perthousand
Encoding: 8240 8240 227
Width: 1396
GlyphClass: 2
Flags: W
LayerCount: 2
Fore
SplineSet
47 438 m 2,1,-1
 47 553 l 2,2,3
 47 632 47 632 87 672.5 c 128,-1,4
 127 713 127 713 204 713 c 0,5,6
 357 713 357 713 356 553 c 2,7,-1
 356 438 l 2,8,9
 356 270 356 270 202 270 c 256,10,0
 47 270 47 270 47 438 c 2,1,-1
679 712 m 1,11,-1
 783 712 l 1,12,-1
 329 0 l 1,13,-1
 225 0 l 1,14,-1
 679 712 l 1,11,-1
241 379.5 m 128,-1,16
 251 398 251 398 251 443 c 2,17,-1
 251 540 l 2,18,19
 251 585 251 585 240.5 604 c 128,-1,20
 230 623 230 623 203 623 c 0,21,22
 174 623 174 623 163.5 604 c 128,-1,23
 153 585 153 585 153 540 c 2,24,-1
 153 443 l 2,25,26
 153 398 153 398 163.5 379.5 c 128,-1,27
 174 361 174 361 203 361 c 256,28,15
 231 361 231 361 241 379.5 c 128,-1,16
650 162 m 2,30,-1
 650 276 l 2,31,32
 650 355 650 355 690 395.5 c 128,-1,33
 730 436 730 436 807 436 c 0,34,35
 960 436 960 436 959 276 c 2,36,-1
 959 162 l 2,37,38
 959 -6 959 -6 805 -6 c 256,39,29
 650 -6 650 -6 650 162 c 2,30,-1
1040 162 m 2,41,-1
 1040 276 l 2,42,43
 1040 355 1040 355 1080 395.5 c 128,-1,44
 1120 436 1120 436 1197 436 c 0,45,46
 1350 436 1350 436 1350 276 c 2,47,-1
 1350 162 l 2,48,49
 1350 -6 1350 -6 1195 -6 c 256,50,40
 1040 -6 1040 -6 1040 162 c 2,41,-1
844.5 103.5 m 128,-1,52
 854 122 854 122 854 167 c 2,53,-1
 854 263 l 2,54,55
 854 308 854 308 844 327 c 128,-1,56
 834 346 834 346 806 346 c 0,57,58
 777 346 777 346 766.5 327 c 128,-1,59
 756 308 756 308 756 263 c 2,60,-1
 756 167 l 2,61,62
 756 122 756 122 766.5 103.5 c 128,-1,63
 777 85 777 85 806 85 c 256,64,51
 835 85 835 85 844.5 103.5 c 128,-1,52
1234.5 103.5 m 128,-1,66
 1244 122 1244 122 1244 167 c 2,67,-1
 1244 263 l 2,68,69
 1244 308 1244 308 1234 327 c 128,-1,70
 1224 346 1224 346 1196 346 c 0,71,72
 1167 346 1167 346 1156.5 327 c 128,-1,73
 1146 308 1146 308 1146 263 c 2,74,-1
 1146 167 l 2,75,76
 1146 122 1146 122 1156.5 103.5 c 128,-1,77
 1167 85 1167 85 1196 85 c 256,78,65
 1225 85 1225 85 1234.5 103.5 c 128,-1,66
EndSplineSet
Validated: 33
EndChar

StartChar: guilsinglleft
Encoding: 8249 8249 228
Width: 334
GlyphClass: 2
Flags: W
LayerCount: 2
Fore
SplineSet
18 270 m 1,0,-1
 280 503 l 1,1,-1
 280 375 l 1,2,-1
 161 270 l 1,3,-1
 280 166 l 1,4,-1
 280 38 l 1,5,-1
 18 270 l 1,0,-1
EndSplineSet
Validated: 1
Substitution2: "'rtla' Right to Left Alternates lookup 0 subtable" guilsinglright
EndChar

StartChar: guilsinglright
Encoding: 8250 8250 229
Width: 344
GlyphClass: 2
Flags: W
LayerCount: 2
Fore
SplineSet
55 166 m 1,0,-1
 175 270 l 1,1,-1
 55 375 l 1,2,-1
 55 503 l 1,3,-1
 316 270 l 1,4,-1
 55 38 l 1,5,-1
 55 166 l 1,0,-1
EndSplineSet
Validated: 1
Substitution2: "'rtla' Right to Left Alternates lookup 0 subtable" guilsinglleft
EndChar

StartChar: Euro
Encoding: 8364 8364 230
Width: 617
GlyphClass: 2
Flags: W
LayerCount: 2
Fore
SplineSet
154.5 54.5 m 128,-1,1
 90 120 90 120 90 234 c 2,2,-1
 90 247 l 1,3,-1
 28 247 l 1,4,-1
 28 330 l 1,5,-1
 90 330 l 1,6,-1
 90 381 l 1,7,-1
 28 381 l 1,8,-1
 28 464 l 1,9,-1
 90 464 l 1,10,-1
 90 477 l 2,11,12
 90 589 90 589 155 653 c 128,-1,13
 220 717 220 717 337 717 c 0,14,15
 441 717 441 717 503 667.5 c 128,-1,16
 565 618 565 618 570 531 c 1,17,-1
 456 531 l 1,18,19
 448 570 448 570 419.5 589 c 128,-1,20
 391 608 391 608 339 608 c 0,21,22
 215 608 215 608 215 477 c 2,23,-1
 215 464 l 1,24,-1
 453 464 l 1,25,-1
 437 381 l 1,26,-1
 215 381 l 1,27,-1
 215 330 l 1,28,-1
 429 330 l 1,29,-1
 413 247 l 1,30,-1
 215 247 l 1,31,-1
 215 234 l 2,32,33
 215 166 215 166 245 131.5 c 128,-1,34
 275 97 275 97 340 97 c 0,35,36
 393 97 393 97 422 116 c 128,-1,37
 451 135 451 135 459 176 c 1,38,-1
 571 176 l 1,39,40
 564 85 564 85 501 37 c 128,-1,41
 438 -11 438 -11 336 -11 c 0,42,0
 219 -11 219 -11 154.5 54.5 c 128,-1,1
EndSplineSet
Validated: 1
EndChar

StartChar: trademark
Encoding: 8482 8482 231
Width: 914
GlyphClass: 2
Flags: W
LayerCount: 2
Fore
SplineSet
159 624 m 1,0,-1
 31 624 l 1,1,-1
 31 707 l 1,2,-1
 380 707 l 1,3,-1
 380 624 l 1,4,-1
 252 624 l 1,5,-1
 252 303 l 1,6,-1
 159 303 l 1,7,-1
 159 624 l 1,0,-1
437 707 m 1,8,-1
 523 707 l 1,9,-1
 645 466 l 1,10,-1
 649 466 l 1,11,-1
 769 707 l 1,12,-1
 854 707 l 1,13,-1
 854 303 l 1,14,-1
 768 303 l 1,15,-1
 768 529 l 1,16,-1
 764 529 l 1,17,-1
 678 361 l 1,18,-1
 614 361 l 1,19,-1
 526 529 l 1,20,-1
 524 529 l 1,21,-1
 524 303 l 1,22,-1
 437 303 l 1,23,-1
 437 707 l 1,8,-1
EndSplineSet
Validated: 1
EndChar

